<svg width="70" height="48" viewBox="0 0 70 48" fill="none" xmlns="http://www.w3.org/2000/svg">
<mask id="path-1-outside-1_1_4" maskUnits="userSpaceOnUse" x="0" y="0" width="70" height="48" fill="black">
<rect fill="white" width="70" height="48"/>
<path d="M1.93854 32.385C1.90187 32.4217 1.8652 32.44 1.82854 32.44C1.71854 32.44 1.66354 32.275 1.66354 31.945C1.66354 31.725 1.71854 31.505 1.82854 31.285C1.9752 31.0283 2.23187 30.8817 2.59854 30.845C3.6252 30.7717 4.59687 30.4233 5.51354 29.8C6.4302 29.1767 7.23687 28.4433 7.93354 27.6C8.6302 26.72 9.1252 25.895 9.41854 25.125L14.4785 12.475C15.1752 10.7517 15.9635 9.08333 16.8435 7.47C17.7602 5.85667 18.9152 4.53667 20.3085 3.51C21.7385 2.48333 23.5352 1.97 25.6985 1.97C26.5419 1.97 27.3852 2.08 28.2285 2.3C29.1085 2.48333 29.8419 2.795 30.4285 3.235C31.0152 3.675 31.3085 4.29833 31.3085 5.105C31.3085 5.215 31.3085 5.325 31.3085 5.435C31.3085 5.545 31.2902 5.655 31.2535 5.765C31.1435 6.35167 30.8135 6.93833 30.2635 7.525C29.7502 8.11167 29.3469 8.845 29.0535 9.725C29.0169 9.98166 28.8519 10.11 28.5585 10.11C28.3019 10.11 28.2469 9.945 28.3935 9.615C28.6869 9.175 28.9069 8.66166 29.0535 8.075C29.2369 7.45167 29.3285 6.82833 29.3285 6.205C29.3285 5.25167 29.1085 4.40833 28.6685 3.675C28.2285 2.94166 27.4769 2.575 26.4135 2.575C25.4602 2.575 24.4885 2.85 23.4985 3.4C22.5085 3.95 21.6469 4.90333 20.9135 6.26L10.7385 25.015C9.7852 26.775 8.9052 28.04 8.09854 28.81C7.32854 29.5433 6.68687 30.0017 6.17354 30.185H19.4285C21.1885 30.185 22.8202 30.13 24.3235 30.02C25.8269 29.91 26.7435 29.635 27.0735 29.195C27.4402 28.6817 27.6235 28.1317 27.6235 27.545C27.6235 26.6283 27.1285 25.95 26.1385 25.51C26.0285 25.4367 25.9735 25.3633 25.9735 25.29C25.9735 25.2167 26.0102 25.1433 26.0835 25.07C26.1935 24.9967 26.3219 24.9967 26.4685 25.07C26.7985 25.2167 27.1835 25.5467 27.6235 26.06C28.1002 26.5367 28.5402 27.0683 28.9435 27.655C29.3469 28.205 29.6035 28.645 29.7135 28.975C29.8235 29.305 29.8785 29.635 29.8785 29.965C29.8785 31.4683 28.5769 32.22 25.9735 32.22C23.9202 32.22 21.7202 32.1467 19.3735 32C17.0269 31.8533 14.6985 31.6883 12.3885 31.505C10.1152 31.3217 7.9702 31.1933 5.95354 31.12C5.18354 31.0467 4.41354 31.1567 3.64354 31.45C2.9102 31.7067 2.34187 32.0183 1.93854 32.385ZM58.7467 46.795C57.8667 46.795 57.0417 46.6117 56.2717 46.245C55.5017 45.8783 54.8417 45.255 54.2917 44.375C53.705 43.4217 53.045 42.3583 52.3117 41.185C51.615 40.0117 50.9183 38.82 50.2217 37.61C49.525 36.4367 48.9017 35.3917 48.3517 34.475C47.8383 33.5583 47.4717 32.8983 47.2517 32.495C46.335 32.605 45.3633 32.66 44.3367 32.66C42.87 32.66 41.4033 32.5317 39.9367 32.275C38.47 32.055 37.1317 31.6333 35.9217 31.01C34.7483 30.3867 33.795 29.5067 33.0617 28.37C32.3283 27.2333 31.9617 25.7667 31.9617 23.97C31.9617 22.4667 32.255 20.7433 32.8417 18.8C33.465 16.82 34.3817 14.84 35.5917 12.86C36.8017 10.8433 38.305 8.97333 40.1017 7.25C41.935 5.52667 44.0433 4.15167 46.4267 3.125C48.8467 2.06167 51.56 1.53 54.5667 1.53C58.9667 1.53 62.175 2.245 64.1917 3.675C66.2083 5.06833 67.2167 7.25 67.2167 10.22C67.2167 12.6767 66.7767 15.0783 65.8967 17.425C65.0167 19.7717 63.77 21.935 62.1567 23.915C60.58 25.8583 58.7283 27.545 56.6017 28.975C54.475 30.3683 52.1467 31.3767 49.6167 32C49.8733 32.55 50.2767 33.2833 50.8267 34.2C51.4133 35.1167 52.055 36.1067 52.7517 37.17C53.4483 38.2333 54.145 39.26 54.8417 40.25C55.575 41.2767 56.2167 42.175 56.7667 42.945C57.3167 43.715 57.94 44.2467 58.6367 44.54C59.3333 44.87 60.03 45.035 60.7267 45.035C61.79 45.035 62.8167 44.7967 63.8067 44.32C64.7967 43.8433 65.6583 43.3117 66.3917 42.725C67.1617 42.175 67.675 41.7533 67.9317 41.46C68.0417 41.35 68.1333 41.295 68.2067 41.295C68.3167 41.295 68.39 41.35 68.4267 41.46C68.5 41.6067 68.4817 41.7533 68.3717 41.9C67.8583 42.4867 67.07 43.165 66.0067 43.935C64.98 44.705 63.825 45.365 62.5417 45.915C61.2583 46.5017 59.9933 46.795 58.7467 46.795ZM43.8967 31.835C46.1333 31.835 48.26 31.4133 50.2767 30.57C52.33 29.69 54.1817 28.5167 55.8317 27.05C57.5183 25.5467 58.9667 23.8417 60.1767 21.935C61.4233 20.0283 62.3767 18.03 63.0367 15.94C63.7333 13.85 64.0817 11.7783 64.0817 9.725C64.0817 7.45167 63.3667 5.655 61.9367 4.335C60.5067 3.015 58.0867 2.355 54.6767 2.355C52.7333 2.355 50.79 2.85 48.8467 3.84C46.94 4.79333 45.1433 6.07666 43.4567 7.69C41.8067 9.30333 40.3217 11.0817 39.0017 13.025C37.7183 14.9683 36.71 16.93 35.9767 18.91C35.2433 20.89 34.8767 22.7417 34.8767 24.465C34.8767 26.775 35.555 28.59 36.9117 29.91C38.305 31.1933 40.6333 31.835 43.8967 31.835Z"/>
</mask>
<path d="M1.93854 32.385C1.90187 32.4217 1.8652 32.44 1.82854 32.44C1.71854 32.44 1.66354 32.275 1.66354 31.945C1.66354 31.725 1.71854 31.505 1.82854 31.285C1.9752 31.0283 2.23187 30.8817 2.59854 30.845C3.6252 30.7717 4.59687 30.4233 5.51354 29.8C6.4302 29.1767 7.23687 28.4433 7.93354 27.6C8.6302 26.72 9.1252 25.895 9.41854 25.125L14.4785 12.475C15.1752 10.7517 15.9635 9.08333 16.8435 7.47C17.7602 5.85667 18.9152 4.53667 20.3085 3.51C21.7385 2.48333 23.5352 1.97 25.6985 1.97C26.5419 1.97 27.3852 2.08 28.2285 2.3C29.1085 2.48333 29.8419 2.795 30.4285 3.235C31.0152 3.675 31.3085 4.29833 31.3085 5.105C31.3085 5.215 31.3085 5.325 31.3085 5.435C31.3085 5.545 31.2902 5.655 31.2535 5.765C31.1435 6.35167 30.8135 6.93833 30.2635 7.525C29.7502 8.11167 29.3469 8.845 29.0535 9.725C29.0169 9.98166 28.8519 10.11 28.5585 10.11C28.3019 10.11 28.2469 9.945 28.3935 9.615C28.6869 9.175 28.9069 8.66166 29.0535 8.075C29.2369 7.45167 29.3285 6.82833 29.3285 6.205C29.3285 5.25167 29.1085 4.40833 28.6685 3.675C28.2285 2.94166 27.4769 2.575 26.4135 2.575C25.4602 2.575 24.4885 2.85 23.4985 3.4C22.5085 3.95 21.6469 4.90333 20.9135 6.26L10.7385 25.015C9.7852 26.775 8.9052 28.04 8.09854 28.81C7.32854 29.5433 6.68687 30.0017 6.17354 30.185H19.4285C21.1885 30.185 22.8202 30.13 24.3235 30.02C25.8269 29.91 26.7435 29.635 27.0735 29.195C27.4402 28.6817 27.6235 28.1317 27.6235 27.545C27.6235 26.6283 27.1285 25.95 26.1385 25.51C26.0285 25.4367 25.9735 25.3633 25.9735 25.29C25.9735 25.2167 26.0102 25.1433 26.0835 25.07C26.1935 24.9967 26.3219 24.9967 26.4685 25.07C26.7985 25.2167 27.1835 25.5467 27.6235 26.06C28.1002 26.5367 28.5402 27.0683 28.9435 27.655C29.3469 28.205 29.6035 28.645 29.7135 28.975C29.8235 29.305 29.8785 29.635 29.8785 29.965C29.8785 31.4683 28.5769 32.22 25.9735 32.22C23.9202 32.22 21.7202 32.1467 19.3735 32C17.0269 31.8533 14.6985 31.6883 12.3885 31.505C10.1152 31.3217 7.9702 31.1933 5.95354 31.12C5.18354 31.0467 4.41354 31.1567 3.64354 31.45C2.9102 31.7067 2.34187 32.0183 1.93854 32.385ZM58.7467 46.795C57.8667 46.795 57.0417 46.6117 56.2717 46.245C55.5017 45.8783 54.8417 45.255 54.2917 44.375C53.705 43.4217 53.045 42.3583 52.3117 41.185C51.615 40.0117 50.9183 38.82 50.2217 37.61C49.525 36.4367 48.9017 35.3917 48.3517 34.475C47.8383 33.5583 47.4717 32.8983 47.2517 32.495C46.335 32.605 45.3633 32.66 44.3367 32.66C42.87 32.66 41.4033 32.5317 39.9367 32.275C38.47 32.055 37.1317 31.6333 35.9217 31.01C34.7483 30.3867 33.795 29.5067 33.0617 28.37C32.3283 27.2333 31.9617 25.7667 31.9617 23.97C31.9617 22.4667 32.255 20.7433 32.8417 18.8C33.465 16.82 34.3817 14.84 35.5917 12.86C36.8017 10.8433 38.305 8.97333 40.1017 7.25C41.935 5.52667 44.0433 4.15167 46.4267 3.125C48.8467 2.06167 51.56 1.53 54.5667 1.53C58.9667 1.53 62.175 2.245 64.1917 3.675C66.2083 5.06833 67.2167 7.25 67.2167 10.22C67.2167 12.6767 66.7767 15.0783 65.8967 17.425C65.0167 19.7717 63.77 21.935 62.1567 23.915C60.58 25.8583 58.7283 27.545 56.6017 28.975C54.475 30.3683 52.1467 31.3767 49.6167 32C49.8733 32.55 50.2767 33.2833 50.8267 34.2C51.4133 35.1167 52.055 36.1067 52.7517 37.17C53.4483 38.2333 54.145 39.26 54.8417 40.25C55.575 41.2767 56.2167 42.175 56.7667 42.945C57.3167 43.715 57.94 44.2467 58.6367 44.54C59.3333 44.87 60.03 45.035 60.7267 45.035C61.79 45.035 62.8167 44.7967 63.8067 44.32C64.7967 43.8433 65.6583 43.3117 66.3917 42.725C67.1617 42.175 67.675 41.7533 67.9317 41.46C68.0417 41.35 68.1333 41.295 68.2067 41.295C68.3167 41.295 68.39 41.35 68.4267 41.46C68.5 41.6067 68.4817 41.7533 68.3717 41.9C67.8583 42.4867 67.07 43.165 66.0067 43.935C64.98 44.705 63.825 45.365 62.5417 45.915C61.2583 46.5017 59.9933 46.795 58.7467 46.795ZM43.8967 31.835C46.1333 31.835 48.26 31.4133 50.2767 30.57C52.33 29.69 54.1817 28.5167 55.8317 27.05C57.5183 25.5467 58.9667 23.8417 60.1767 21.935C61.4233 20.0283 62.3767 18.03 63.0367 15.94C63.7333 13.85 64.0817 11.7783 64.0817 9.725C64.0817 7.45167 63.3667 5.655 61.9367 4.335C60.5067 3.015 58.0867 2.355 54.6767 2.355C52.7333 2.355 50.79 2.85 48.8467 3.84C46.94 4.79333 45.1433 6.07666 43.4567 7.69C41.8067 9.30333 40.3217 11.0817 39.0017 13.025C37.7183 14.9683 36.71 16.93 35.9767 18.91C35.2433 20.89 34.8767 22.7417 34.8767 24.465C34.8767 26.775 35.555 28.59 36.9117 29.91C38.305 31.1933 40.6333 31.835 43.8967 31.835Z" fill="#CE00B9"/>
<path d="M1.93854 32.385L1.26586 31.6451L1.24825 31.6611L1.23143 31.6779L1.93854 32.385ZM1.82854 31.285L0.960292 30.7889L0.946521 30.813L0.934108 30.8378L1.82854 31.285ZM2.59854 30.845L2.52729 29.8475L2.51314 29.8486L2.49903 29.85L2.59854 30.845ZM5.51354 29.8L6.07585 30.6269L6.07585 30.6269L5.51354 29.8ZM7.93354 27.6L8.7045 28.2369L8.71112 28.2289L8.71758 28.2207L7.93354 27.6ZM9.41854 25.125L8.49006 24.7536L8.48699 24.7613L8.48405 24.769L9.41854 25.125ZM14.4785 12.475L13.5514 12.1002L13.5501 12.1036L14.4785 12.475ZM16.8435 7.47L15.9741 6.97599L15.9698 6.98353L15.9656 6.99115L16.8435 7.47ZM20.3085 3.51L19.7253 2.69761L19.7153 2.70494L20.3085 3.51ZM28.2285 2.3L27.9761 3.26762L28.0002 3.2739L28.0246 3.27898L28.2285 2.3ZM30.4285 3.235L29.8285 4.035L29.8285 4.035L30.4285 3.235ZM31.2535 5.765L30.3049 5.44876L30.2833 5.51357L30.2707 5.58071L31.2535 5.765ZM30.2635 7.525L29.534 6.84106L29.5223 6.85358L29.511 6.86649L30.2635 7.525ZM29.0535 9.725L28.1049 9.40877L28.0763 9.49431L28.0636 9.58357L29.0535 9.725ZM28.3935 9.615L27.5615 9.0603L27.5143 9.1311L27.4797 9.20886L28.3935 9.615ZM29.0535 8.075L28.0942 7.79283L28.0884 7.81254L28.0834 7.83246L29.0535 8.075ZM28.6685 3.675L27.811 4.18949L27.811 4.18949L28.6685 3.675ZM23.4985 3.4L23.0129 2.52584L23.0129 2.52584L23.4985 3.4ZM20.9135 6.26L21.7925 6.73686L21.7932 6.73552L20.9135 6.26ZM10.7385 25.015L9.85956 24.5381L9.85924 24.5387L10.7385 25.015ZM8.09854 28.81L8.78819 29.5341L8.78901 29.5334L8.09854 28.81ZM6.17354 30.185L5.8372 29.2433L6.17354 31.185V30.185ZM24.3235 30.02L24.2506 29.0227L24.2506 29.0227L24.3235 30.02ZM27.0735 29.195L27.8735 29.795L27.8805 29.7857L27.8873 29.7762L27.0735 29.195ZM26.1385 25.51L25.5838 26.342L25.6546 26.3893L25.7324 26.4238L26.1385 25.51ZM26.0835 25.07L25.5288 24.238L25.4464 24.2929L25.3764 24.3629L26.0835 25.07ZM26.4685 25.07L26.0213 25.9644L26.0416 25.9746L26.0624 25.9838L26.4685 25.07ZM27.6235 26.06L26.8643 26.7108L26.8893 26.74L26.9164 26.7671L27.6235 26.06ZM28.9435 27.655L28.1195 28.2215L28.1281 28.2341L28.1371 28.2464L28.9435 27.655ZM29.7135 28.975L28.7649 29.2912L28.7649 29.2912L29.7135 28.975ZM12.3885 31.505L12.3082 32.5018L12.3094 32.5019L12.3885 31.505ZM5.95354 31.12L5.85873 32.1155L5.8879 32.1183L5.9172 32.1193L5.95354 31.12ZM3.64354 31.45L3.97389 32.3939L3.98677 32.3893L3.99953 32.3845L3.64354 31.45ZM1.93854 32.385L1.23143 31.6779C1.30376 31.6056 1.50644 31.44 1.82854 31.44V32.44V33.44C2.22396 33.44 2.49998 33.2378 2.64564 33.0921L1.93854 32.385ZM1.82854 32.44V31.44C2.08359 31.44 2.30917 31.5477 2.46345 31.702C2.59318 31.8317 2.64023 31.9603 2.65347 32C2.67808 32.0739 2.66354 32.0808 2.66354 31.945H1.66354H0.663535C0.663535 32.1392 0.67649 32.3936 0.756102 32.6325C0.827151 32.8456 1.10928 33.44 1.82854 33.44V32.44ZM1.66354 31.945H2.66354C2.66354 31.8978 2.67411 31.8299 2.72296 31.7322L1.82854 31.285L0.934108 30.8378C0.762964 31.1801 0.663535 31.5522 0.663535 31.945H1.66354ZM1.82854 31.285L2.69678 31.7811C2.69096 31.7913 2.68096 31.8055 2.66627 31.8202C2.65157 31.8349 2.63735 31.8449 2.62717 31.8507C2.60753 31.862 2.62093 31.8477 2.69804 31.84L2.59854 30.845L2.49903 29.85C1.89944 29.9099 1.30717 30.1818 0.960292 30.7889L1.82854 31.285ZM2.59854 30.845L2.66978 31.8425C3.88579 31.7556 5.02499 31.3415 6.07585 30.6269L5.51354 29.8L4.95123 28.9731C4.16875 29.5052 3.36461 29.7877 2.52729 29.8475L2.59854 30.845ZM5.51354 29.8L6.07585 30.6269C7.06964 29.9511 7.9468 29.1541 8.7045 28.2369L7.93354 27.6L7.16257 26.9631C6.52693 27.7326 5.79077 28.4022 4.95123 28.9731L5.51354 29.8ZM7.93354 27.6L8.71758 28.2207C9.45633 27.2875 10.0129 26.3739 10.353 25.481L9.41854 25.125L8.48405 24.769C8.23753 25.4161 7.80408 26.1525 7.14949 26.9793L7.93354 27.6ZM9.41854 25.125L10.347 25.4964L15.407 12.8464L14.4785 12.475L13.5501 12.1036L8.49006 24.7536L9.41854 25.125ZM14.4785 12.475L15.4056 12.8498C16.0881 11.1617 16.86 9.52809 17.7214 7.94885L16.8435 7.47L15.9656 6.99115C15.067 8.63858 14.2623 10.3417 13.5514 12.1002L14.4785 12.475ZM16.8435 7.47L17.713 7.96401C18.5655 6.46365 19.6293 5.25267 20.9017 4.31506L20.3085 3.51L19.7153 2.70494C18.2011 3.82066 16.9549 5.24968 15.9741 6.97599L16.8435 7.47ZM20.3085 3.51L20.8917 4.32232C22.1161 3.44329 23.6958 2.97 25.6985 2.97V1.97V0.97C23.3746 0.97 21.361 1.52338 19.7253 2.69768L20.3085 3.51ZM25.6985 1.97V2.97C26.4539 2.97 27.2124 3.06839 27.9761 3.26762L28.2285 2.3L28.481 1.33238C27.558 1.0916 26.6299 0.97 25.6985 0.97V1.97ZM28.2285 2.3L28.0246 3.27898C28.7928 3.43902 29.3826 3.70054 29.8285 4.035L30.4285 3.235L31.0285 2.435C30.3012 1.88946 29.4243 1.52765 28.4325 1.32102L28.2285 2.3ZM30.4285 3.235L29.8285 4.035C30.1357 4.26536 30.3085 4.57676 30.3085 5.105H31.3085H32.3085C32.3085 4.0199 31.8947 3.08463 31.0285 2.435L30.4285 3.235ZM31.3085 5.105H30.3085C30.3085 5.10521 30.3085 5.10543 30.3085 5.10564C30.3085 5.10586 30.3085 5.10607 30.3085 5.10629C30.3085 5.1065 30.3085 5.10672 30.3085 5.10693C30.3085 5.10715 30.3085 5.10736 30.3085 5.10758C30.3085 5.10779 30.3085 5.10801 30.3085 5.10822C30.3085 5.10844 30.3085 5.10865 30.3085 5.10887C30.3085 5.10908 30.3085 5.1093 30.3085 5.10951C30.3085 5.10973 30.3085 5.10994 30.3085 5.11016C30.3085 5.11037 30.3085 5.11058 30.3085 5.1108C30.3085 5.11101 30.3085 5.11123 30.3085 5.11144C30.3085 5.11166 30.3085 5.11187 30.3085 5.11209C30.3085 5.1123 30.3085 5.11252 30.3085 5.11273C30.3085 5.11295 30.3085 5.11316 30.3085 5.11338C30.3085 5.11359 30.3085 5.11381 30.3085 5.11402C30.3085 5.11424 30.3085 5.11445 30.3085 5.11467C30.3085 5.11488 30.3085 5.1151 30.3085 5.11531C30.3085 5.11553 30.3085 5.11574 30.3085 5.11596C30.3085 5.11617 30.3085 5.11639 30.3085 5.1166C30.3085 5.11682 30.3085 5.11703 30.3085 5.11724C30.3085 5.11746 30.3085 5.11767 30.3085 5.11789C30.3085 5.1181 30.3085 5.11832 30.3085 5.11853C30.3085 5.11875 30.3085 5.11896 30.3085 5.11918C30.3085 5.11939 30.3085 5.11961 30.3085 5.11982C30.3085 5.12004 30.3085 5.12025 30.3085 5.12047C30.3085 5.12068 30.3085 5.1209 30.3085 5.12111C30.3085 5.12133 30.3085 5.12154 30.3085 5.12176C30.3085 5.12197 30.3085 5.12219 30.3085 5.1224C30.3085 5.12262 30.3085 5.12283 30.3085 5.12305C30.3085 5.12326 30.3085 5.12348 30.3085 5.12369C30.3085 5.1239 30.3085 5.12412 30.3085 5.12433C30.3085 5.12455 30.3085 5.12476 30.3085 5.12498C30.3085 5.12519 30.3085 5.12541 30.3085 5.12562C30.3085 5.12584 30.3085 5.12605 30.3085 5.12627C30.3085 5.12648 30.3085 5.1267 30.3085 5.12691C30.3085 5.12713 30.3085 5.12734 30.3085 5.12756C30.3085 5.12777 30.3085 5.12799 30.3085 5.1282C30.3085 5.12842 30.3085 5.12863 30.3085 5.12885C30.3085 5.12906 30.3085 5.12928 30.3085 5.12949C30.3085 5.12971 30.3085 5.12992 30.3085 5.13014C30.3085 5.13035 30.3085 5.13057 30.3085 5.13078C30.3085 5.13099 30.3085 5.13121 30.3085 5.13142C30.3085 5.13164 30.3085 5.13185 30.3085 5.13207C30.3085 5.13228 30.3085 5.1325 30.3085 5.13271C30.3085 5.13293 30.3085 5.13314 30.3085 5.13336C30.3085 5.13357 30.3085 5.13379 30.3085 5.134C30.3085 5.13422 30.3085 5.13443 30.3085 5.13465C30.3085 5.13486 30.3085 5.13508 30.3085 5.13529C30.3085 5.13551 30.3085 5.13572 30.3085 5.13594C30.3085 5.13615 30.3085 5.13637 30.3085 5.13658C30.3085 5.1368 30.3085 5.13701 30.3085 5.13723C30.3085 5.13744 30.3085 5.13765 30.3085 5.13787C30.3085 5.13808 30.3085 5.1383 30.3085 5.13851C30.3085 5.13873 30.3085 5.13894 30.3085 5.13916C30.3085 5.13937 30.3085 5.13959 30.3085 5.1398C30.3085 5.14002 30.3085 5.14023 30.3085 5.14045C30.3085 5.14066 30.3085 5.14088 30.3085 5.14109C30.3085 5.14131 30.3085 5.14152 30.3085 5.14174C30.3085 5.14195 30.3085 5.14217 30.3085 5.14238C30.3085 5.1426 30.3085 5.14281 30.3085 5.14303C30.3085 5.14324 30.3085 5.14346 30.3085 5.14367C30.3085 5.14389 30.3085 5.1441 30.3085 5.14432C30.3085 5.14453 30.3085 5.14474 30.3085 5.14496C30.3085 5.14517 30.3085 5.14539 30.3085 5.1456C30.3085 5.14582 30.3085 5.14603 30.3085 5.14625C30.3085 5.14646 30.3085 5.14668 30.3085 5.14689C30.3085 5.14711 30.3085 5.14732 30.3085 5.14754C30.3085 5.14775 30.3085 5.14797 30.3085 5.14818C30.3085 5.1484 30.3085 5.14861 30.3085 5.14883C30.3085 5.14904 30.3085 5.14926 30.3085 5.14947C30.3085 5.14969 30.3085 5.1499 30.3085 5.15012C30.3085 5.15033 30.3085 5.15055 30.3085 5.15076C30.3085 5.15098 30.3085 5.15119 30.3085 5.1514C30.3085 5.15162 30.3085 5.15183 30.3085 5.15205C30.3085 5.15226 30.3085 5.15248 30.3085 5.15269C30.3085 5.15291 30.3085 5.15312 30.3085 5.15334C30.3085 5.15355 30.3085 5.15377 30.3085 5.15398C30.3085 5.1542 30.3085 5.15441 30.3085 5.15463C30.3085 5.15484 30.3085 5.15506 30.3085 5.15527C30.3085 5.15549 30.3085 5.1557 30.3085 5.15592C30.3085 5.15613 30.3085 5.15635 30.3085 5.15656C30.3085 5.15678 30.3085 5.15699 30.3085 5.15721C30.3085 5.15742 30.3085 5.15764 30.3085 5.15785C30.3085 5.15807 30.3085 5.15828 30.3085 5.15849C30.3085 5.15871 30.3085 5.15892 30.3085 5.15914C30.3085 5.15935 30.3085 5.15957 30.3085 5.15978C30.3085 5.16 30.3085 5.16021 30.3085 5.16043C30.3085 5.16064 30.3085 5.16086 30.3085 5.16107C30.3085 5.16129 30.3085 5.1615 30.3085 5.16172C30.3085 5.16193 30.3085 5.16215 30.3085 5.16236C30.3085 5.16258 30.3085 5.16279 30.3085 5.16301C30.3085 5.16322 30.3085 5.16344 30.3085 5.16365C30.3085 5.16387 30.3085 5.16408 30.3085 5.1643C30.3085 5.16451 30.3085 5.16473 30.3085 5.16494C30.3085 5.16515 30.3085 5.16537 30.3085 5.16558C30.3085 5.1658 30.3085 5.16601 30.3085 5.16623C30.3085 5.16644 30.3085 5.16666 30.3085 5.16687C30.3085 5.16709 30.3085 5.1673 30.3085 5.16752C30.3085 5.16773 30.3085 5.16795 30.3085 5.16816C30.3085 5.16838 30.3085 5.16859 30.3085 5.16881C30.3085 5.16902 30.3085 5.16924 30.3085 5.16945C30.3085 5.16967 30.3085 5.16988 30.3085 5.1701C30.3085 5.17031 30.3085 5.17053 30.3085 5.17074C30.3085 5.17096 30.3085 5.17117 30.3085 5.17139C30.3085 5.1716 30.3085 5.17182 30.3085 5.17203C30.3085 5.17224 30.3085 5.17246 30.3085 5.17267C30.3085 5.17289 30.3085 5.1731 30.3085 5.17332C30.3085 5.17353 30.3085 5.17375 30.3085 5.17396C30.3085 5.17418 30.3085 5.17439 30.3085 5.17461C30.3085 5.17482 30.3085 5.17504 30.3085 5.17525C30.3085 5.17547 30.3085 5.17568 30.3085 5.1759C30.3085 5.17611 30.3085 5.17633 30.3085 5.17654C30.3085 5.17676 30.3085 5.17697 30.3085 5.17719C30.3085 5.1774 30.3085 5.17762 30.3085 5.17783C30.3085 5.17805 30.3085 5.17826 30.3085 5.17848C30.3085 5.17869 30.3085 5.1789 30.3085 5.17912C30.3085 5.17933 30.3085 5.17955 30.3085 5.17976C30.3085 5.17998 30.3085 5.18019 30.3085 5.18041C30.3085 5.18062 30.3085 5.18084 30.3085 5.18105C30.3085 5.18127 30.3085 5.18148 30.3085 5.1817C30.3085 5.18191 30.3085 5.18213 30.3085 5.18234C30.3085 5.18256 30.3085 5.18277 30.3085 5.18299C30.3085 5.1832 30.3085 5.18342 30.3085 5.18363C30.3085 5.18385 30.3085 5.18406 30.3085 5.18428C30.3085 5.18449 30.3085 5.18471 30.3085 5.18492C30.3085 5.18514 30.3085 5.18535 30.3085 5.18557C30.3085 5.18578 30.3085 5.18599 30.3085 5.18621C30.3085 5.18642 30.3085 5.18664 30.3085 5.18685C30.3085 5.18707 30.3085 5.18728 30.3085 5.1875C30.3085 5.18771 30.3085 5.18793 30.3085 5.18814C30.3085 5.18836 30.3085 5.18857 30.3085 5.18879C30.3085 5.189 30.3085 5.18922 30.3085 5.18943C30.3085 5.18965 30.3085 5.18986 30.3085 5.19008C30.3085 5.19029 30.3085 5.19051 30.3085 5.19072C30.3085 5.19094 30.3085 5.19115 30.3085 5.19137C30.3085 5.19158 30.3085 5.1918 30.3085 5.19201C30.3085 5.19223 30.3085 5.19244 30.3085 5.19265C30.3085 5.19287 30.3085 5.19308 30.3085 5.1933C30.3085 5.19351 30.3085 5.19373 30.3085 5.19394C30.3085 5.19416 30.3085 5.19437 30.3085 5.19459C30.3085 5.1948 30.3085 5.19502 30.3085 5.19523C30.3085 5.19545 30.3085 5.19566 30.3085 5.19588C30.3085 5.19609 30.3085 5.19631 30.3085 5.19652C30.3085 5.19674 30.3085 5.19695 30.3085 5.19717C30.3085 5.19738 30.3085 5.1976 30.3085 5.19781C30.3085 5.19803 30.3085 5.19824 30.3085 5.19846C30.3085 5.19867 30.3085 5.19889 30.3085 5.1991C30.3085 5.19932 30.3085 5.19953 30.3085 5.19974C30.3085 5.19996 30.3085 5.20017 30.3085 5.20039C30.3085 5.2006 30.3085 5.20082 30.3085 5.20103C30.3085 5.20125 30.3085 5.20146 30.3085 5.20168C30.3085 5.20189 30.3085 5.20211 30.3085 5.20232C30.3085 5.20254 30.3085 5.20275 30.3085 5.20297C30.3085 5.20318 30.3085 5.2034 30.3085 5.20361C30.3085 5.20383 30.3085 5.20404 30.3085 5.20426C30.3085 5.20447 30.3085 5.20469 30.3085 5.2049C30.3085 5.20512 30.3085 5.20533 30.3085 5.20555C30.3085 5.20576 30.3085 5.20598 30.3085 5.20619C30.3085 5.2064 30.3085 5.20662 30.3085 5.20683C30.3085 5.20705 30.3085 5.20726 30.3085 5.20748C30.3085 5.20769 30.3085 5.20791 30.3085 5.20812C30.3085 5.20834 30.3085 5.20855 30.3085 5.20877C30.3085 5.20898 30.3085 5.2092 30.3085 5.20941C30.3085 5.20963 30.3085 5.20984 30.3085 5.21006C30.3085 5.21027 30.3085 5.21049 30.3085 5.2107C30.3085 5.21092 30.3085 5.21113 30.3085 5.21135C30.3085 5.21156 30.3085 5.21178 30.3085 5.21199C30.3085 5.21221 30.3085 5.21242 30.3085 5.21264C30.3085 5.21285 30.3085 5.21307 30.3085 5.21328C30.3085 5.21349 30.3085 5.21371 30.3085 5.21392C30.3085 5.21414 30.3085 5.21435 30.3085 5.21457C30.3085 5.21478 30.3085 5.215 30.3085 5.21521C30.3085 5.21543 30.3085 5.21564 30.3085 5.21586C30.3085 5.21607 30.3085 5.21629 30.3085 5.2165C30.3085 5.21672 30.3085 5.21693 30.3085 5.21715C30.3085 5.21736 30.3085 5.21758 30.3085 5.21779C30.3085 5.21801 30.3085 5.21822 30.3085 5.21844C30.3085 5.21865 30.3085 5.21887 30.3085 5.21908C30.3085 5.2193 30.3085 5.21951 30.3085 5.21973C30.3085 5.21994 30.3085 5.22015 30.3085 5.22037C30.3085 5.22058 30.3085 5.2208 30.3085 5.22101C30.3085 5.22123 30.3085 5.22144 30.3085 5.22166C30.3085 5.22187 30.3085 5.22209 30.3085 5.2223C30.3085 5.22252 30.3085 5.22273 30.3085 5.22295C30.3085 5.22316 30.3085 5.22338 30.3085 5.22359C30.3085 5.22381 30.3085 5.22402 30.3085 5.22424C30.3085 5.22445 30.3085 5.22467 30.3085 5.22488C30.3085 5.2251 30.3085 5.22531 30.3085 5.22553C30.3085 5.22574 30.3085 5.22596 30.3085 5.22617C30.3085 5.22639 30.3085 5.2266 30.3085 5.22682C30.3085 5.22703 30.3085 5.22724 30.3085 5.22746C30.3085 5.22767 30.3085 5.22789 30.3085 5.2281C30.3085 5.22832 30.3085 5.22853 30.3085 5.22875C30.3085 5.22896 30.3085 5.22918 30.3085 5.22939C30.3085 5.22961 30.3085 5.22982 30.3085 5.23004C30.3085 5.23025 30.3085 5.23047 30.3085 5.23068C30.3085 5.2309 30.3085 5.23111 30.3085 5.23133C30.3085 5.23154 30.3085 5.23176 30.3085 5.23197C30.3085 5.23219 30.3085 5.2324 30.3085 5.23262C30.3085 5.23283 30.3085 5.23305 30.3085 5.23326C30.3085 5.23348 30.3085 5.23369 30.3085 5.2339C30.3085 5.23412 30.3085 5.23433 30.3085 5.23455C30.3085 5.23476 30.3085 5.23498 30.3085 5.23519C30.3085 5.23541 30.3085 5.23562 30.3085 5.23584C30.3085 5.23605 30.3085 5.23627 30.3085 5.23648C30.3085 5.2367 30.3085 5.23691 30.3085 5.23713C30.3085 5.23734 30.3085 5.23756 30.3085 5.23777C30.3085 5.23799 30.3085 5.2382 30.3085 5.23842C30.3085 5.23863 30.3085 5.23885 30.3085 5.23906C30.3085 5.23928 30.3085 5.23949 30.3085 5.23971C30.3085 5.23992 30.3085 5.24014 30.3085 5.24035C30.3085 5.24057 30.3085 5.24078 30.3085 5.24099C30.3085 5.24121 30.3085 5.24142 30.3085 5.24164C30.3085 5.24185 30.3085 5.24207 30.3085 5.24228C30.3085 5.2425 30.3085 5.24271 30.3085 5.24293C30.3085 5.24314 30.3085 5.24336 30.3085 5.24357C30.3085 5.24379 30.3085 5.244 30.3085 5.24422C30.3085 5.24443 30.3085 5.24465 30.3085 5.24486C30.3085 5.24508 30.3085 5.24529 30.3085 5.24551C30.3085 5.24572 30.3085 5.24594 30.3085 5.24615C30.3085 5.24637 30.3085 5.24658 30.3085 5.2468C30.3085 5.24701 30.3085 5.24723 30.3085 5.24744C30.3085 5.24765 30.3085 5.24787 30.3085 5.24808C30.3085 5.2483 30.3085 5.24851 30.3085 5.24873C30.3085 5.24894 30.3085 5.24916 30.3085 5.24937C30.3085 5.24959 30.3085 5.2498 30.3085 5.25002C30.3085 5.25023 30.3085 5.25045 30.3085 5.25066C30.3085 5.25088 30.3085 5.25109 30.3085 5.25131C30.3085 5.25152 30.3085 5.25174 30.3085 5.25195C30.3085 5.25217 30.3085 5.25238 30.3085 5.2526C30.3085 5.25281 30.3085 5.25303 30.3085 5.25324C30.3085 5.25346 30.3085 5.25367 30.3085 5.25389C30.3085 5.2541 30.3085 5.25432 30.3085 5.25453C30.3085 5.25474 30.3085 5.25496 30.3085 5.25517C30.3085 5.25539 30.3085 5.2556 30.3085 5.25582C30.3085 5.25603 30.3085 5.25625 30.3085 5.25646C30.3085 5.25668 30.3085 5.25689 30.3085 5.25711C30.3085 5.25732 30.3085 5.25754 30.3085 5.25775C30.3085 5.25797 30.3085 5.25818 30.3085 5.2584C30.3085 5.25861 30.3085 5.25883 30.3085 5.25904C30.3085 5.25926 30.3085 5.25947 30.3085 5.25969C30.3085 5.2599 30.3085 5.26012 30.3085 5.26033C30.3085 5.26055 30.3085 5.26076 30.3085 5.26098C30.3085 5.26119 30.3085 5.2614 30.3085 5.26162C30.3085 5.26183 30.3085 5.26205 30.3085 5.26226C30.3085 5.26248 30.3085 5.26269 30.3085 5.26291C30.3085 5.26312 30.3085 5.26334 30.3085 5.26355C30.3085 5.26377 30.3085 5.26398 30.3085 5.2642C30.3085 5.26441 30.3085 5.26463 30.3085 5.26484C30.3085 5.26506 30.3085 5.26527 30.3085 5.26549C30.3085 5.2657 30.3085 5.26592 30.3085 5.26613C30.3085 5.26635 30.3085 5.26656 30.3085 5.26678C30.3085 5.26699 30.3085 5.26721 30.3085 5.26742C30.3085 5.26764 30.3085 5.26785 30.3085 5.26807C30.3085 5.26828 30.3085 5.26849 30.3085 5.26871C30.3085 5.26892 30.3085 5.26914 30.3085 5.26935C30.3085 5.26957 30.3085 5.26978 30.3085 5.27C30.3085 5.27021 30.3085 5.27043 30.3085 5.27064C30.3085 5.27086 30.3085 5.27107 30.3085 5.27129C30.3085 5.2715 30.3085 5.27172 30.3085 5.27193C30.3085 5.27215 30.3085 5.27236 30.3085 5.27258C30.3085 5.27279 30.3085 5.27301 30.3085 5.27322C30.3085 5.27344 30.3085 5.27365 30.3085 5.27387C30.3085 5.27408 30.3085 5.2743 30.3085 5.27451C30.3085 5.27473 30.3085 5.27494 30.3085 5.27515C30.3085 5.27537 30.3085 5.27558 30.3085 5.2758C30.3085 5.27601 30.3085 5.27623 30.3085 5.27644C30.3085 5.27666 30.3085 5.27687 30.3085 5.27709C30.3085 5.2773 30.3085 5.27752 30.3085 5.27773C30.3085 5.27795 30.3085 5.27816 30.3085 5.27838C30.3085 5.27859 30.3085 5.27881 30.3085 5.27902C30.3085 5.27924 30.3085 5.27945 30.3085 5.27967C30.3085 5.27988 30.3085 5.2801 30.3085 5.28031C30.3085 5.28053 30.3085 5.28074 30.3085 5.28096C30.3085 5.28117 30.3085 5.28139 30.3085 5.2816C30.3085 5.28182 30.3085 5.28203 30.3085 5.28224C30.3085 5.28246 30.3085 5.28267 30.3085 5.28289C30.3085 5.2831 30.3085 5.28332 30.3085 5.28353C30.3085 5.28375 30.3085 5.28396 30.3085 5.28418C30.3085 5.28439 30.3085 5.28461 30.3085 5.28482C30.3085 5.28504 30.3085 5.28525 30.3085 5.28547C30.3085 5.28568 30.3085 5.2859 30.3085 5.28611C30.3085 5.28633 30.3085 5.28654 30.3085 5.28676C30.3085 5.28697 30.3085 5.28719 30.3085 5.2874C30.3085 5.28762 30.3085 5.28783 30.3085 5.28805C30.3085 5.28826 30.3085 5.28848 30.3085 5.28869C30.3085 5.2889 30.3085 5.28912 30.3085 5.28933C30.3085 5.28955 30.3085 5.28976 30.3085 5.28998C30.3085 5.29019 30.3085 5.29041 30.3085 5.29062C30.3085 5.29084 30.3085 5.29105 30.3085 5.29127C30.3085 5.29148 30.3085 5.2917 30.3085 5.29191C30.3085 5.29213 30.3085 5.29234 30.3085 5.29256C30.3085 5.29277 30.3085 5.29299 30.3085 5.2932C30.3085 5.29342 30.3085 5.29363 30.3085 5.29385C30.3085 5.29406 30.3085 5.29428 30.3085 5.29449C30.3085 5.29471 30.3085 5.29492 30.3085 5.29514C30.3085 5.29535 30.3085 5.29557 30.3085 5.29578C30.3085 5.29599 30.3085 5.29621 30.3085 5.29642C30.3085 5.29664 30.3085 5.29685 30.3085 5.29707C30.3085 5.29728 30.3085 5.2975 30.3085 5.29771C30.3085 5.29793 30.3085 5.29814 30.3085 5.29836C30.3085 5.29857 30.3085 5.29879 30.3085 5.299C30.3085 5.29922 30.3085 5.29943 30.3085 5.29965C30.3085 5.29986 30.3085 5.30008 30.3085 5.30029C30.3085 5.30051 30.3085 5.30072 30.3085 5.30094C30.3085 5.30115 30.3085 5.30137 30.3085 5.30158C30.3085 5.3018 30.3085 5.30201 30.3085 5.30223C30.3085 5.30244 30.3085 5.30266 30.3085 5.30287C30.3085 5.30308 30.3085 5.3033 30.3085 5.30351C30.3085 5.30373 30.3085 5.30394 30.3085 5.30416C30.3085 5.30437 30.3085 5.30459 30.3085 5.3048C30.3085 5.30502 30.3085 5.30523 30.3085 5.30545C30.3085 5.30566 30.3085 5.30588 30.3085 5.30609C30.3085 5.30631 30.3085 5.30652 30.3085 5.30674C30.3085 5.30695 30.3085 5.30717 30.3085 5.30738C30.3085 5.3076 30.3085 5.30781 30.3085 5.30803C30.3085 5.30824 30.3085 5.30846 30.3085 5.30867C30.3085 5.30889 30.3085 5.3091 30.3085 5.30932C30.3085 5.30953 30.3085 5.30974 30.3085 5.30996C30.3085 5.31017 30.3085 5.31039 30.3085 5.3106C30.3085 5.31082 30.3085 5.31103 30.3085 5.31125C30.3085 5.31146 30.3085 5.31168 30.3085 5.31189C30.3085 5.31211 30.3085 5.31232 30.3085 5.31254C30.3085 5.31275 30.3085 5.31297 30.3085 5.31318C30.3085 5.3134 30.3085 5.31361 30.3085 5.31383C30.3085 5.31404 30.3085 5.31426 30.3085 5.31447C30.3085 5.31469 30.3085 5.3149 30.3085 5.31512C30.3085 5.31533 30.3085 5.31555 30.3085 5.31576C30.3085 5.31598 30.3085 5.31619 30.3085 5.31641C30.3085 5.31662 30.3085 5.31683 30.3085 5.31705C30.3085 5.31726 30.3085 5.31748 30.3085 5.31769C30.3085 5.31791 30.3085 5.31812 30.3085 5.31834C30.3085 5.31855 30.3085 5.31877 30.3085 5.31898C30.3085 5.3192 30.3085 5.31941 30.3085 5.31963C30.3085 5.31984 30.3085 5.32006 30.3085 5.32027C30.3085 5.32049 30.3085 5.3207 30.3085 5.32092C30.3085 5.32113 30.3085 5.32135 30.3085 5.32156C30.3085 5.32178 30.3085 5.32199 30.3085 5.32221C30.3085 5.32242 30.3085 5.32264 30.3085 5.32285C30.3085 5.32307 30.3085 5.32328 30.3085 5.32349C30.3085 5.32371 30.3085 5.32392 30.3085 5.32414C30.3085 5.32435 30.3085 5.32457 30.3085 5.32478C30.3085 5.325 30.3085 5.32521 30.3085 5.32543C30.3085 5.32564 30.3085 5.32586 30.3085 5.32607C30.3085 5.32629 30.3085 5.3265 30.3085 5.32672C30.3085 5.32693 30.3085 5.32715 30.3085 5.32736C30.3085 5.32758 30.3085 5.32779 30.3085 5.32801C30.3085 5.32822 30.3085 5.32844 30.3085 5.32865C30.3085 5.32887 30.3085 5.32908 30.3085 5.3293C30.3085 5.32951 30.3085 5.32973 30.3085 5.32994C30.3085 5.33016 30.3085 5.33037 30.3085 5.33058C30.3085 5.3308 30.3085 5.33101 30.3085 5.33123C30.3085 5.33144 30.3085 5.33166 30.3085 5.33187C30.3085 5.33209 30.3085 5.3323 30.3085 5.33252C30.3085 5.33273 30.3085 5.33295 30.3085 5.33316C30.3085 5.33338 30.3085 5.33359 30.3085 5.33381C30.3085 5.33402 30.3085 5.33424 30.3085 5.33445C30.3085 5.33467 30.3085 5.33488 30.3085 5.3351C30.3085 5.33531 30.3085 5.33553 30.3085 5.33574C30.3085 5.33596 30.3085 5.33617 30.3085 5.33639C30.3085 5.3366 30.3085 5.33682 30.3085 5.33703C30.3085 5.33724 30.3085 5.33746 30.3085 5.33767C30.3085 5.33789 30.3085 5.3381 30.3085 5.33832C30.3085 5.33853 30.3085 5.33875 30.3085 5.33896C30.3085 5.33918 30.3085 5.33939 30.3085 5.33961C30.3085 5.33982 30.3085 5.34004 30.3085 5.34025C30.3085 5.34047 30.3085 5.34068 30.3085 5.3409C30.3085 5.34111 30.3085 5.34133 30.3085 5.34154C30.3085 5.34176 30.3085 5.34197 30.3085 5.34219C30.3085 5.3424 30.3085 5.34262 30.3085 5.34283C30.3085 5.34305 30.3085 5.34326 30.3085 5.34348C30.3085 5.34369 30.3085 5.34391 30.3085 5.34412C30.3085 5.34433 30.3085 5.34455 30.3085 5.34476C30.3085 5.34498 30.3085 5.34519 30.3085 5.34541C30.3085 5.34562 30.3085 5.34584 30.3085 5.34605C30.3085 5.34627 30.3085 5.34648 30.3085 5.3467C30.3085 5.34691 30.3085 5.34713 30.3085 5.34734C30.3085 5.34756 30.3085 5.34777 30.3085 5.34799C30.3085 5.3482 30.3085 5.34842 30.3085 5.34863C30.3085 5.34885 30.3085 5.34906 30.3085 5.34928C30.3085 5.34949 30.3085 5.34971 30.3085 5.34992C30.3085 5.35014 30.3085 5.35035 30.3085 5.35057C30.3085 5.35078 30.3085 5.351 30.3085 5.35121C30.3085 5.35142 30.3085 5.35164 30.3085 5.35185C30.3085 5.35207 30.3085 5.35228 30.3085 5.3525C30.3085 5.35271 30.3085 5.35293 30.3085 5.35314C30.3085 5.35336 30.3085 5.35357 30.3085 5.35379C30.3085 5.354 30.3085 5.35422 30.3085 5.35443C30.3085 5.35465 30.3085 5.35486 30.3085 5.35508C30.3085 5.35529 30.3085 5.35551 30.3085 5.35572C30.3085 5.35594 30.3085 5.35615 30.3085 5.35637C30.3085 5.35658 30.3085 5.3568 30.3085 5.35701C30.3085 5.35723 30.3085 5.35744 30.3085 5.35766C30.3085 5.35787 30.3085 5.35808 30.3085 5.3583C30.3085 5.35851 30.3085 5.35873 30.3085 5.35894C30.3085 5.35916 30.3085 5.35937 30.3085 5.35959C30.3085 5.3598 30.3085 5.36002 30.3085 5.36023C30.3085 5.36045 30.3085 5.36066 30.3085 5.36088C30.3085 5.36109 30.3085 5.36131 30.3085 5.36152C30.3085 5.36174 30.3085 5.36195 30.3085 5.36217C30.3085 5.36238 30.3085 5.3626 30.3085 5.36281C30.3085 5.36303 30.3085 5.36324 30.3085 5.36346C30.3085 5.36367 30.3085 5.36389 30.3085 5.3641C30.3085 5.36432 30.3085 5.36453 30.3085 5.36475C30.3085 5.36496 30.3085 5.36517 30.3085 5.36539C30.3085 5.3656 30.3085 5.36582 30.3085 5.36603C30.3085 5.36625 30.3085 5.36646 30.3085 5.36668C30.3085 5.36689 30.3085 5.36711 30.3085 5.36732C30.3085 5.36754 30.3085 5.36775 30.3085 5.36797C30.3085 5.36818 30.3085 5.3684 30.3085 5.36861C30.3085 5.36883 30.3085 5.36904 30.3085 5.36926C30.3085 5.36947 30.3085 5.36969 30.3085 5.3699C30.3085 5.37012 30.3085 5.37033 30.3085 5.37055C30.3085 5.37076 30.3085 5.37098 30.3085 5.37119C30.3085 5.37141 30.3085 5.37162 30.3085 5.37183C30.3085 5.37205 30.3085 5.37226 30.3085 5.37248C30.3085 5.37269 30.3085 5.37291 30.3085 5.37312C30.3085 5.37334 30.3085 5.37355 30.3085 5.37377C30.3085 5.37398 30.3085 5.3742 30.3085 5.37441C30.3085 5.37463 30.3085 5.37484 30.3085 5.37506C30.3085 5.37527 30.3085 5.37549 30.3085 5.3757C30.3085 5.37592 30.3085 5.37613 30.3085 5.37635C30.3085 5.37656 30.3085 5.37678 30.3085 5.37699C30.3085 5.37721 30.3085 5.37742 30.3085 5.37764C30.3085 5.37785 30.3085 5.37807 30.3085 5.37828C30.3085 5.3785 30.3085 5.37871 30.3085 5.37892C30.3085 5.37914 30.3085 5.37935 30.3085 5.37957C30.3085 5.37978 30.3085 5.38 30.3085 5.38021C30.3085 5.38043 30.3085 5.38064 30.3085 5.38086C30.3085 5.38107 30.3085 5.38129 30.3085 5.3815C30.3085 5.38172 30.3085 5.38193 30.3085 5.38215C30.3085 5.38236 30.3085 5.38258 30.3085 5.38279C30.3085 5.38301 30.3085 5.38322 30.3085 5.38344C30.3085 5.38365 30.3085 5.38387 30.3085 5.38408C30.3085 5.3843 30.3085 5.38451 30.3085 5.38473C30.3085 5.38494 30.3085 5.38516 30.3085 5.38537C30.3085 5.38559 30.3085 5.3858 30.3085 5.38601C30.3085 5.38623 30.3085 5.38644 30.3085 5.38666C30.3085 5.38687 30.3085 5.38709 30.3085 5.3873C30.3085 5.38752 30.3085 5.38773 30.3085 5.38795C30.3085 5.38816 30.3085 5.38838 30.3085 5.38859C30.3085 5.38881 30.3085 5.38902 30.3085 5.38924C30.3085 5.38945 30.3085 5.38967 30.3085 5.38988C30.3085 5.3901 30.3085 5.39031 30.3085 5.39053C30.3085 5.39074 30.3085 5.39096 30.3085 5.39117C30.3085 5.39139 30.3085 5.3916 30.3085 5.39182C30.3085 5.39203 30.3085 5.39225 30.3085 5.39246C30.3085 5.39267 30.3085 5.39289 30.3085 5.3931C30.3085 5.39332 30.3085 5.39353 30.3085 5.39375C30.3085 5.39396 30.3085 5.39418 30.3085 5.39439C30.3085 5.39461 30.3085 5.39482 30.3085 5.39504C30.3085 5.39525 30.3085 5.39547 30.3085 5.39568C30.3085 5.3959 30.3085 5.39611 30.3085 5.39633C30.3085 5.39654 30.3085 5.39676 30.3085 5.39697C30.3085 5.39719 30.3085 5.3974 30.3085 5.39762C30.3085 5.39783 30.3085 5.39805 30.3085 5.39826C30.3085 5.39848 30.3085 5.39869 30.3085 5.39891C30.3085 5.39912 30.3085 5.39934 30.3085 5.39955C30.3085 5.39976 30.3085 5.39998 30.3085 5.40019C30.3085 5.40041 30.3085 5.40062 30.3085 5.40084C30.3085 5.40105 30.3085 5.40127 30.3085 5.40148C30.3085 5.4017 30.3085 5.40191 30.3085 5.40213C30.3085 5.40234 30.3085 5.40256 30.3085 5.40277C30.3085 5.40299 30.3085 5.4032 30.3085 5.40342C30.3085 5.40363 30.3085 5.40385 30.3085 5.40406C30.3085 5.40428 30.3085 5.40449 30.3085 5.40471C30.3085 5.40492 30.3085 5.40514 30.3085 5.40535C30.3085 5.40557 30.3085 5.40578 30.3085 5.406C30.3085 5.40621 30.3085 5.40643 30.3085 5.40664C30.3085 5.40685 30.3085 5.40707 30.3085 5.40728C30.3085 5.4075 30.3085 5.40771 30.3085 5.40793C30.3085 5.40814 30.3085 5.40836 30.3085 5.40857C30.3085 5.40879 30.3085 5.409 30.3085 5.40922C30.3085 5.40943 30.3085 5.40965 30.3085 5.40986C30.3085 5.41008 30.3085 5.41029 30.3085 5.41051C30.3085 5.41072 30.3085 5.41094 30.3085 5.41115C30.3085 5.41137 30.3085 5.41158 30.3085 5.4118C30.3085 5.41201 30.3085 5.41223 30.3085 5.41244C30.3085 5.41266 30.3085 5.41287 30.3085 5.41309C30.3085 5.4133 30.3085 5.41351 30.3085 5.41373C30.3085 5.41394 30.3085 5.41416 30.3085 5.41437C30.3085 5.41459 30.3085 5.4148 30.3085 5.41502C30.3085 5.41523 30.3085 5.41545 30.3085 5.41566C30.3085 5.41588 30.3085 5.41609 30.3085 5.41631C30.3085 5.41652 30.3085 5.41674 30.3085 5.41695C30.3085 5.41717 30.3085 5.41738 30.3085 5.4176C30.3085 5.41781 30.3085 5.41803 30.3085 5.41824C30.3085 5.41846 30.3085 5.41867 30.3085 5.41889C30.3085 5.4191 30.3085 5.41932 30.3085 5.41953C30.3085 5.41975 30.3085 5.41996 30.3085 5.42018C30.3085 5.42039 30.3085 5.4206 30.3085 5.42082C30.3085 5.42103 30.3085 5.42125 30.3085 5.42146C30.3085 5.42168 30.3085 5.42189 30.3085 5.42211C30.3085 5.42232 30.3085 5.42254 30.3085 5.42275C30.3085 5.42297 30.3085 5.42318 30.3085 5.4234C30.3085 5.42361 30.3085 5.42383 30.3085 5.42404C30.3085 5.42426 30.3085 5.42447 30.3085 5.42469C30.3085 5.4249 30.3085 5.42512 30.3085 5.42533C30.3085 5.42555 30.3085 5.42576 30.3085 5.42598C30.3085 5.42619 30.3085 5.42641 30.3085 5.42662C30.3085 5.42684 30.3085 5.42705 30.3085 5.42727C30.3085 5.42748 30.3085 5.42769 30.3085 5.42791C30.3085 5.42812 30.3085 5.42834 30.3085 5.42855C30.3085 5.42877 30.3085 5.42898 30.3085 5.4292C30.3085 5.42941 30.3085 5.42963 30.3085 5.42984C30.3085 5.43006 30.3085 5.43027 30.3085 5.43049C30.3085 5.4307 30.3085 5.43092 30.3085 5.43113C30.3085 5.43135 30.3085 5.43156 30.3085 5.43178C30.3085 5.43199 30.3085 5.43221 30.3085 5.43242C30.3085 5.43264 30.3085 5.43285 30.3085 5.43307C30.3085 5.43328 30.3085 5.4335 30.3085 5.43371C30.3085 5.43393 30.3085 5.43414 30.3085 5.43435C30.3085 5.43457 30.3085 5.43478 30.3085 5.435H31.3085H32.3085C32.3085 5.43478 32.3085 5.43457 32.3085 5.43435C32.3085 5.43414 32.3085 5.43393 32.3085 5.43371C32.3085 5.4335 32.3085 5.43328 32.3085 5.43307C32.3085 5.43285 32.3085 5.43264 32.3085 5.43242C32.3085 5.43221 32.3085 5.43199 32.3085 5.43178C32.3085 5.43156 32.3085 5.43135 32.3085 5.43113C32.3085 5.43092 32.3085 5.4307 32.3085 5.43049C32.3085 5.43027 32.3085 5.43006 32.3085 5.42984C32.3085 5.42963 32.3085 5.42941 32.3085 5.4292C32.3085 5.42898 32.3085 5.42877 32.3085 5.42855C32.3085 5.42834 32.3085 5.42812 32.3085 5.42791C32.3085 5.42769 32.3085 5.42748 32.3085 5.42727C32.3085 5.42705 32.3085 5.42684 32.3085 5.42662C32.3085 5.42641 32.3085 5.42619 32.3085 5.42598C32.3085 5.42576 32.3085 5.42555 32.3085 5.42533C32.3085 5.42512 32.3085 5.4249 32.3085 5.42469C32.3085 5.42447 32.3085 5.42426 32.3085 5.42404C32.3085 5.42383 32.3085 5.42361 32.3085 5.4234C32.3085 5.42318 32.3085 5.42297 32.3085 5.42275C32.3085 5.42254 32.3085 5.42232 32.3085 5.42211C32.3085 5.42189 32.3085 5.42168 32.3085 5.42146C32.3085 5.42125 32.3085 5.42103 32.3085 5.42082C32.3085 5.4206 32.3085 5.42039 32.3085 5.42018C32.3085 5.41996 32.3085 5.41975 32.3085 5.41953C32.3085 5.41932 32.3085 5.4191 32.3085 5.41889C32.3085 5.41867 32.3085 5.41846 32.3085 5.41824C32.3085 5.41803 32.3085 5.41781 32.3085 5.4176C32.3085 5.41738 32.3085 5.41717 32.3085 5.41695C32.3085 5.41674 32.3085 5.41652 32.3085 5.41631C32.3085 5.41609 32.3085 5.41588 32.3085 5.41566C32.3085 5.41545 32.3085 5.41523 32.3085 5.41502C32.3085 5.4148 32.3085 5.41459 32.3085 5.41437C32.3085 5.41416 32.3085 5.41394 32.3085 5.41373C32.3085 5.41351 32.3085 5.4133 32.3085 5.41309C32.3085 5.41287 32.3085 5.41266 32.3085 5.41244C32.3085 5.41223 32.3085 5.41201 32.3085 5.4118C32.3085 5.41158 32.3085 5.41137 32.3085 5.41115C32.3085 5.41094 32.3085 5.41072 32.3085 5.41051C32.3085 5.41029 32.3085 5.41008 32.3085 5.40986C32.3085 5.40965 32.3085 5.40943 32.3085 5.40922C32.3085 5.409 32.3085 5.40879 32.3085 5.40857C32.3085 5.40836 32.3085 5.40814 32.3085 5.40793C32.3085 5.40771 32.3085 5.4075 32.3085 5.40728C32.3085 5.40707 32.3085 5.40685 32.3085 5.40664C32.3085 5.40643 32.3085 5.40621 32.3085 5.406C32.3085 5.40578 32.3085 5.40557 32.3085 5.40535C32.3085 5.40514 32.3085 5.40492 32.3085 5.40471C32.3085 5.40449 32.3085 5.40428 32.3085 5.40406C32.3085 5.40385 32.3085 5.40363 32.3085 5.40342C32.3085 5.4032 32.3085 5.40299 32.3085 5.40277C32.3085 5.40256 32.3085 5.40234 32.3085 5.40213C32.3085 5.40191 32.3085 5.4017 32.3085 5.40148C32.3085 5.40127 32.3085 5.40105 32.3085 5.40084C32.3085 5.40062 32.3085 5.40041 32.3085 5.40019C32.3085 5.39998 32.3085 5.39976 32.3085 5.39955C32.3085 5.39934 32.3085 5.39912 32.3085 5.39891C32.3085 5.39869 32.3085 5.39848 32.3085 5.39826C32.3085 5.39805 32.3085 5.39783 32.3085 5.39762C32.3085 5.3974 32.3085 5.39719 32.3085 5.39697C32.3085 5.39676 32.3085 5.39654 32.3085 5.39633C32.3085 5.39611 32.3085 5.3959 32.3085 5.39568C32.3085 5.39547 32.3085 5.39525 32.3085 5.39504C32.3085 5.39482 32.3085 5.39461 32.3085 5.39439C32.3085 5.39418 32.3085 5.39396 32.3085 5.39375C32.3085 5.39353 32.3085 5.39332 32.3085 5.3931C32.3085 5.39289 32.3085 5.39267 32.3085 5.39246C32.3085 5.39225 32.3085 5.39203 32.3085 5.39182C32.3085 5.3916 32.3085 5.39139 32.3085 5.39117C32.3085 5.39096 32.3085 5.39074 32.3085 5.39053C32.3085 5.39031 32.3085 5.3901 32.3085 5.38988C32.3085 5.38967 32.3085 5.38945 32.3085 5.38924C32.3085 5.38902 32.3085 5.38881 32.3085 5.38859C32.3085 5.38838 32.3085 5.38816 32.3085 5.38795C32.3085 5.38773 32.3085 5.38752 32.3085 5.3873C32.3085 5.38709 32.3085 5.38687 32.3085 5.38666C32.3085 5.38644 32.3085 5.38623 32.3085 5.38601C32.3085 5.3858 32.3085 5.38559 32.3085 5.38537C32.3085 5.38516 32.3085 5.38494 32.3085 5.38473C32.3085 5.38451 32.3085 5.3843 32.3085 5.38408C32.3085 5.38387 32.3085 5.38365 32.3085 5.38344C32.3085 5.38322 32.3085 5.38301 32.3085 5.38279C32.3085 5.38258 32.3085 5.38236 32.3085 5.38215C32.3085 5.38193 32.3085 5.38172 32.3085 5.3815C32.3085 5.38129 32.3085 5.38107 32.3085 5.38086C32.3085 5.38064 32.3085 5.38043 32.3085 5.38021C32.3085 5.38 32.3085 5.37978 32.3085 5.37957C32.3085 5.37935 32.3085 5.37914 32.3085 5.37892C32.3085 5.37871 32.3085 5.3785 32.3085 5.37828C32.3085 5.37807 32.3085 5.37785 32.3085 5.37764C32.3085 5.37742 32.3085 5.37721 32.3085 5.37699C32.3085 5.37678 32.3085 5.37656 32.3085 5.37635C32.3085 5.37613 32.3085 5.37592 32.3085 5.3757C32.3085 5.37549 32.3085 5.37527 32.3085 5.37506C32.3085 5.37484 32.3085 5.37463 32.3085 5.37441C32.3085 5.3742 32.3085 5.37398 32.3085 5.37377C32.3085 5.37355 32.3085 5.37334 32.3085 5.37312C32.3085 5.37291 32.3085 5.37269 32.3085 5.37248C32.3085 5.37226 32.3085 5.37205 32.3085 5.37183C32.3085 5.37162 32.3085 5.37141 32.3085 5.37119C32.3085 5.37098 32.3085 5.37076 32.3085 5.37055C32.3085 5.37033 32.3085 5.37012 32.3085 5.3699C32.3085 5.36969 32.3085 5.36947 32.3085 5.36926C32.3085 5.36904 32.3085 5.36883 32.3085 5.36861C32.3085 5.3684 32.3085 5.36818 32.3085 5.36797C32.3085 5.36775 32.3085 5.36754 32.3085 5.36732C32.3085 5.36711 32.3085 5.36689 32.3085 5.36668C32.3085 5.36646 32.3085 5.36625 32.3085 5.36603C32.3085 5.36582 32.3085 5.3656 32.3085 5.36539C32.3085 5.36517 32.3085 5.36496 32.3085 5.36475C32.3085 5.36453 32.3085 5.36432 32.3085 5.3641C32.3085 5.36389 32.3085 5.36367 32.3085 5.36346C32.3085 5.36324 32.3085 5.36303 32.3085 5.36281C32.3085 5.3626 32.3085 5.36238 32.3085 5.36217C32.3085 5.36195 32.3085 5.36174 32.3085 5.36152C32.3085 5.36131 32.3085 5.36109 32.3085 5.36088C32.3085 5.36066 32.3085 5.36045 32.3085 5.36023C32.3085 5.36002 32.3085 5.3598 32.3085 5.35959C32.3085 5.35937 32.3085 5.35916 32.3085 5.35894C32.3085 5.35873 32.3085 5.35851 32.3085 5.3583C32.3085 5.35808 32.3085 5.35787 32.3085 5.35766C32.3085 5.35744 32.3085 5.35723 32.3085 5.35701C32.3085 5.3568 32.3085 5.35658 32.3085 5.35637C32.3085 5.35615 32.3085 5.35594 32.3085 5.35572C32.3085 5.35551 32.3085 5.35529 32.3085 5.35508C32.3085 5.35486 32.3085 5.35465 32.3085 5.35443C32.3085 5.35422 32.3085 5.354 32.3085 5.35379C32.3085 5.35357 32.3085 5.35336 32.3085 5.35314C32.3085 5.35293 32.3085 5.35271 32.3085 5.3525C32.3085 5.35228 32.3085 5.35207 32.3085 5.35185C32.3085 5.35164 32.3085 5.35142 32.3085 5.35121C32.3085 5.351 32.3085 5.35078 32.3085 5.35057C32.3085 5.35035 32.3085 5.35014 32.3085 5.34992C32.3085 5.34971 32.3085 5.34949 32.3085 5.34928C32.3085 5.34906 32.3085 5.34885 32.3085 5.34863C32.3085 5.34842 32.3085 5.3482 32.3085 5.34799C32.3085 5.34777 32.3085 5.34756 32.3085 5.34734C32.3085 5.34713 32.3085 5.34691 32.3085 5.3467C32.3085 5.34648 32.3085 5.34627 32.3085 5.34605C32.3085 5.34584 32.3085 5.34562 32.3085 5.34541C32.3085 5.34519 32.3085 5.34498 32.3085 5.34476C32.3085 5.34455 32.3085 5.34433 32.3085 5.34412C32.3085 5.34391 32.3085 5.34369 32.3085 5.34348C32.3085 5.34326 32.3085 5.34305 32.3085 5.34283C32.3085 5.34262 32.3085 5.3424 32.3085 5.34219C32.3085 5.34197 32.3085 5.34176 32.3085 5.34154C32.3085 5.34133 32.3085 5.34111 32.3085 5.3409C32.3085 5.34068 32.3085 5.34047 32.3085 5.34025C32.3085 5.34004 32.3085 5.33982 32.3085 5.33961C32.3085 5.33939 32.3085 5.33918 32.3085 5.33896C32.3085 5.33875 32.3085 5.33853 32.3085 5.33832C32.3085 5.3381 32.3085 5.33789 32.3085 5.33767C32.3085 5.33746 32.3085 5.33724 32.3085 5.33703C32.3085 5.33682 32.3085 5.3366 32.3085 5.33639C32.3085 5.33617 32.3085 5.33596 32.3085 5.33574C32.3085 5.33553 32.3085 5.33531 32.3085 5.3351C32.3085 5.33488 32.3085 5.33467 32.3085 5.33445C32.3085 5.33424 32.3085 5.33402 32.3085 5.33381C32.3085 5.33359 32.3085 5.33338 32.3085 5.33316C32.3085 5.33295 32.3085 5.33273 32.3085 5.33252C32.3085 5.3323 32.3085 5.33209 32.3085 5.33187C32.3085 5.33166 32.3085 5.33144 32.3085 5.33123C32.3085 5.33101 32.3085 5.3308 32.3085 5.33058C32.3085 5.33037 32.3085 5.33016 32.3085 5.32994C32.3085 5.32973 32.3085 5.32951 32.3085 5.3293C32.3085 5.32908 32.3085 5.32887 32.3085 5.32865C32.3085 5.32844 32.3085 5.32822 32.3085 5.32801C32.3085 5.32779 32.3085 5.32758 32.3085 5.32736C32.3085 5.32715 32.3085 5.32693 32.3085 5.32672C32.3085 5.3265 32.3085 5.32629 32.3085 5.32607C32.3085 5.32586 32.3085 5.32564 32.3085 5.32543C32.3085 5.32521 32.3085 5.325 32.3085 5.32478C32.3085 5.32457 32.3085 5.32435 32.3085 5.32414C32.3085 5.32392 32.3085 5.32371 32.3085 5.32349C32.3085 5.32328 32.3085 5.32307 32.3085 5.32285C32.3085 5.32264 32.3085 5.32242 32.3085 5.32221C32.3085 5.32199 32.3085 5.32178 32.3085 5.32156C32.3085 5.32135 32.3085 5.32113 32.3085 5.32092C32.3085 5.3207 32.3085 5.32049 32.3085 5.32027C32.3085 5.32006 32.3085 5.31984 32.3085 5.31963C32.3085 5.31941 32.3085 5.3192 32.3085 5.31898C32.3085 5.31877 32.3085 5.31855 32.3085 5.31834C32.3085 5.31812 32.3085 5.31791 32.3085 5.31769C32.3085 5.31748 32.3085 5.31726 32.3085 5.31705C32.3085 5.31683 32.3085 5.31662 32.3085 5.31641C32.3085 5.31619 32.3085 5.31598 32.3085 5.31576C32.3085 5.31555 32.3085 5.31533 32.3085 5.31512C32.3085 5.3149 32.3085 5.31469 32.3085 5.31447C32.3085 5.31426 32.3085 5.31404 32.3085 5.31383C32.3085 5.31361 32.3085 5.3134 32.3085 5.31318C32.3085 5.31297 32.3085 5.31275 32.3085 5.31254C32.3085 5.31232 32.3085 5.31211 32.3085 5.31189C32.3085 5.31168 32.3085 5.31146 32.3085 5.31125C32.3085 5.31103 32.3085 5.31082 32.3085 5.3106C32.3085 5.31039 32.3085 5.31017 32.3085 5.30996C32.3085 5.30974 32.3085 5.30953 32.3085 5.30932C32.3085 5.3091 32.3085 5.30889 32.3085 5.30867C32.3085 5.30846 32.3085 5.30824 32.3085 5.30803C32.3085 5.30781 32.3085 5.3076 32.3085 5.30738C32.3085 5.30717 32.3085 5.30695 32.3085 5.30674C32.3085 5.30652 32.3085 5.30631 32.3085 5.30609C32.3085 5.30588 32.3085 5.30566 32.3085 5.30545C32.3085 5.30523 32.3085 5.30502 32.3085 5.3048C32.3085 5.30459 32.3085 5.30437 32.3085 5.30416C32.3085 5.30394 32.3085 5.30373 32.3085 5.30351C32.3085 5.3033 32.3085 5.30308 32.3085 5.30287C32.3085 5.30266 32.3085 5.30244 32.3085 5.30223C32.3085 5.30201 32.3085 5.3018 32.3085 5.30158C32.3085 5.30137 32.3085 5.30115 32.3085 5.30094C32.3085 5.30072 32.3085 5.30051 32.3085 5.30029C32.3085 5.30008 32.3085 5.29986 32.3085 5.29965C32.3085 5.29943 32.3085 5.29922 32.3085 5.299C32.3085 5.29879 32.3085 5.29857 32.3085 5.29836C32.3085 5.29814 32.3085 5.29793 32.3085 5.29771C32.3085 5.2975 32.3085 5.29728 32.3085 5.29707C32.3085 5.29685 32.3085 5.29664 32.3085 5.29642C32.3085 5.29621 32.3085 5.29599 32.3085 5.29578C32.3085 5.29557 32.3085 5.29535 32.3085 5.29514C32.3085 5.29492 32.3085 5.29471 32.3085 5.29449C32.3085 5.29428 32.3085 5.29406 32.3085 5.29385C32.3085 5.29363 32.3085 5.29342 32.3085 5.2932C32.3085 5.29299 32.3085 5.29277 32.3085 5.29256C32.3085 5.29234 32.3085 5.29213 32.3085 5.29191C32.3085 5.2917 32.3085 5.29148 32.3085 5.29127C32.3085 5.29105 32.3085 5.29084 32.3085 5.29062C32.3085 5.29041 32.3085 5.29019 32.3085 5.28998C32.3085 5.28976 32.3085 5.28955 32.3085 5.28933C32.3085 5.28912 32.3085 5.2889 32.3085 5.28869C32.3085 5.28848 32.3085 5.28826 32.3085 5.28805C32.3085 5.28783 32.3085 5.28762 32.3085 5.2874C32.3085 5.28719 32.3085 5.28697 32.3085 5.28676C32.3085 5.28654 32.3085 5.28633 32.3085 5.28611C32.3085 5.2859 32.3085 5.28568 32.3085 5.28547C32.3085 5.28525 32.3085 5.28504 32.3085 5.28482C32.3085 5.28461 32.3085 5.28439 32.3085 5.28418C32.3085 5.28396 32.3085 5.28375 32.3085 5.28353C32.3085 5.28332 32.3085 5.2831 32.3085 5.28289C32.3085 5.28267 32.3085 5.28246 32.3085 5.28224C32.3085 5.28203 32.3085 5.28182 32.3085 5.2816C32.3085 5.28139 32.3085 5.28117 32.3085 5.28096C32.3085 5.28074 32.3085 5.28053 32.3085 5.28031C32.3085 5.2801 32.3085 5.27988 32.3085 5.27967C32.3085 5.27945 32.3085 5.27924 32.3085 5.27902C32.3085 5.27881 32.3085 5.27859 32.3085 5.27838C32.3085 5.27816 32.3085 5.27795 32.3085 5.27773C32.3085 5.27752 32.3085 5.2773 32.3085 5.27709C32.3085 5.27687 32.3085 5.27666 32.3085 5.27644C32.3085 5.27623 32.3085 5.27601 32.3085 5.2758C32.3085 5.27558 32.3085 5.27537 32.3085 5.27515C32.3085 5.27494 32.3085 5.27473 32.3085 5.27451C32.3085 5.2743 32.3085 5.27408 32.3085 5.27387C32.3085 5.27365 32.3085 5.27344 32.3085 5.27322C32.3085 5.27301 32.3085 5.27279 32.3085 5.27258C32.3085 5.27236 32.3085 5.27215 32.3085 5.27193C32.3085 5.27172 32.3085 5.2715 32.3085 5.27129C32.3085 5.27107 32.3085 5.27086 32.3085 5.27064C32.3085 5.27043 32.3085 5.27021 32.3085 5.27C32.3085 5.26978 32.3085 5.26957 32.3085 5.26935C32.3085 5.26914 32.3085 5.26892 32.3085 5.26871C32.3085 5.26849 32.3085 5.26828 32.3085 5.26807C32.3085 5.26785 32.3085 5.26764 32.3085 5.26742C32.3085 5.26721 32.3085 5.26699 32.3085 5.26678C32.3085 5.26656 32.3085 5.26635 32.3085 5.26613C32.3085 5.26592 32.3085 5.2657 32.3085 5.26549C32.3085 5.26527 32.3085 5.26506 32.3085 5.26484C32.3085 5.26463 32.3085 5.26441 32.3085 5.2642C32.3085 5.26398 32.3085 5.26377 32.3085 5.26355C32.3085 5.26334 32.3085 5.26312 32.3085 5.26291C32.3085 5.26269 32.3085 5.26248 32.3085 5.26226C32.3085 5.26205 32.3085 5.26183 32.3085 5.26162C32.3085 5.2614 32.3085 5.26119 32.3085 5.26098C32.3085 5.26076 32.3085 5.26055 32.3085 5.26033C32.3085 5.26012 32.3085 5.2599 32.3085 5.25969C32.3085 5.25947 32.3085 5.25926 32.3085 5.25904C32.3085 5.25883 32.3085 5.25861 32.3085 5.2584C32.3085 5.25818 32.3085 5.25797 32.3085 5.25775C32.3085 5.25754 32.3085 5.25732 32.3085 5.25711C32.3085 5.25689 32.3085 5.25668 32.3085 5.25646C32.3085 5.25625 32.3085 5.25603 32.3085 5.25582C32.3085 5.2556 32.3085 5.25539 32.3085 5.25517C32.3085 5.25496 32.3085 5.25474 32.3085 5.25453C32.3085 5.25432 32.3085 5.2541 32.3085 5.25389C32.3085 5.25367 32.3085 5.25346 32.3085 5.25324C32.3085 5.25303 32.3085 5.25281 32.3085 5.2526C32.3085 5.25238 32.3085 5.25217 32.3085 5.25195C32.3085 5.25174 32.3085 5.25152 32.3085 5.25131C32.3085 5.25109 32.3085 5.25088 32.3085 5.25066C32.3085 5.25045 32.3085 5.25023 32.3085 5.25002C32.3085 5.2498 32.3085 5.24959 32.3085 5.24937C32.3085 5.24916 32.3085 5.24894 32.3085 5.24873C32.3085 5.24851 32.3085 5.2483 32.3085 5.24808C32.3085 5.24787 32.3085 5.24765 32.3085 5.24744C32.3085 5.24723 32.3085 5.24701 32.3085 5.2468C32.3085 5.24658 32.3085 5.24637 32.3085 5.24615C32.3085 5.24594 32.3085 5.24572 32.3085 5.24551C32.3085 5.24529 32.3085 5.24508 32.3085 5.24486C32.3085 5.24465 32.3085 5.24443 32.3085 5.24422C32.3085 5.244 32.3085 5.24379 32.3085 5.24357C32.3085 5.24336 32.3085 5.24314 32.3085 5.24293C32.3085 5.24271 32.3085 5.2425 32.3085 5.24228C32.3085 5.24207 32.3085 5.24185 32.3085 5.24164C32.3085 5.24142 32.3085 5.24121 32.3085 5.24099C32.3085 5.24078 32.3085 5.24057 32.3085 5.24035C32.3085 5.24014 32.3085 5.23992 32.3085 5.23971C32.3085 5.23949 32.3085 5.23928 32.3085 5.23906C32.3085 5.23885 32.3085 5.23863 32.3085 5.23842C32.3085 5.2382 32.3085 5.23799 32.3085 5.23777C32.3085 5.23756 32.3085 5.23734 32.3085 5.23713C32.3085 5.23691 32.3085 5.2367 32.3085 5.23648C32.3085 5.23627 32.3085 5.23605 32.3085 5.23584C32.3085 5.23562 32.3085 5.23541 32.3085 5.23519C32.3085 5.23498 32.3085 5.23476 32.3085 5.23455C32.3085 5.23433 32.3085 5.23412 32.3085 5.2339C32.3085 5.23369 32.3085 5.23348 32.3085 5.23326C32.3085 5.23305 32.3085 5.23283 32.3085 5.23262C32.3085 5.2324 32.3085 5.23219 32.3085 5.23197C32.3085 5.23176 32.3085 5.23154 32.3085 5.23133C32.3085 5.23111 32.3085 5.2309 32.3085 5.23068C32.3085 5.23047 32.3085 5.23025 32.3085 5.23004C32.3085 5.22982 32.3085 5.22961 32.3085 5.22939C32.3085 5.22918 32.3085 5.22896 32.3085 5.22875C32.3085 5.22853 32.3085 5.22832 32.3085 5.2281C32.3085 5.22789 32.3085 5.22767 32.3085 5.22746C32.3085 5.22724 32.3085 5.22703 32.3085 5.22682C32.3085 5.2266 32.3085 5.22639 32.3085 5.22617C32.3085 5.22596 32.3085 5.22574 32.3085 5.22553C32.3085 5.22531 32.3085 5.2251 32.3085 5.22488C32.3085 5.22467 32.3085 5.22445 32.3085 5.22424C32.3085 5.22402 32.3085 5.22381 32.3085 5.22359C32.3085 5.22338 32.3085 5.22316 32.3085 5.22295C32.3085 5.22273 32.3085 5.22252 32.3085 5.2223C32.3085 5.22209 32.3085 5.22187 32.3085 5.22166C32.3085 5.22144 32.3085 5.22123 32.3085 5.22101C32.3085 5.2208 32.3085 5.22058 32.3085 5.22037C32.3085 5.22015 32.3085 5.21994 32.3085 5.21973C32.3085 5.21951 32.3085 5.2193 32.3085 5.21908C32.3085 5.21887 32.3085 5.21865 32.3085 5.21844C32.3085 5.21822 32.3085 5.21801 32.3085 5.21779C32.3085 5.21758 32.3085 5.21736 32.3085 5.21715C32.3085 5.21693 32.3085 5.21672 32.3085 5.2165C32.3085 5.21629 32.3085 5.21607 32.3085 5.21586C32.3085 5.21564 32.3085 5.21543 32.3085 5.21521C32.3085 5.215 32.3085 5.21478 32.3085 5.21457C32.3085 5.21435 32.3085 5.21414 32.3085 5.21392C32.3085 5.21371 32.3085 5.21349 32.3085 5.21328C32.3085 5.21307 32.3085 5.21285 32.3085 5.21264C32.3085 5.21242 32.3085 5.21221 32.3085 5.21199C32.3085 5.21178 32.3085 5.21156 32.3085 5.21135C32.3085 5.21113 32.3085 5.21092 32.3085 5.2107C32.3085 5.21049 32.3085 5.21027 32.3085 5.21006C32.3085 5.20984 32.3085 5.20963 32.3085 5.20941C32.3085 5.2092 32.3085 5.20898 32.3085 5.20877C32.3085 5.20855 32.3085 5.20834 32.3085 5.20812C32.3085 5.20791 32.3085 5.20769 32.3085 5.20748C32.3085 5.20726 32.3085 5.20705 32.3085 5.20683C32.3085 5.20662 32.3085 5.2064 32.3085 5.20619C32.3085 5.20598 32.3085 5.20576 32.3085 5.20555C32.3085 5.20533 32.3085 5.20512 32.3085 5.2049C32.3085 5.20469 32.3085 5.20447 32.3085 5.20426C32.3085 5.20404 32.3085 5.20383 32.3085 5.20361C32.3085 5.2034 32.3085 5.20318 32.3085 5.20297C32.3085 5.20275 32.3085 5.20254 32.3085 5.20232C32.3085 5.20211 32.3085 5.20189 32.3085 5.20168C32.3085 5.20146 32.3085 5.20125 32.3085 5.20103C32.3085 5.20082 32.3085 5.2006 32.3085 5.20039C32.3085 5.20017 32.3085 5.19996 32.3085 5.19974C32.3085 5.19953 32.3085 5.19932 32.3085 5.1991C32.3085 5.19889 32.3085 5.19867 32.3085 5.19846C32.3085 5.19824 32.3085 5.19803 32.3085 5.19781C32.3085 5.1976 32.3085 5.19738 32.3085 5.19717C32.3085 5.19695 32.3085 5.19674 32.3085 5.19652C32.3085 5.19631 32.3085 5.19609 32.3085 5.19588C32.3085 5.19566 32.3085 5.19545 32.3085 5.19523C32.3085 5.19502 32.3085 5.1948 32.3085 5.19459C32.3085 5.19437 32.3085 5.19416 32.3085 5.19394C32.3085 5.19373 32.3085 5.19351 32.3085 5.1933C32.3085 5.19308 32.3085 5.19287 32.3085 5.19265C32.3085 5.19244 32.3085 5.19223 32.3085 5.19201C32.3085 5.1918 32.3085 5.19158 32.3085 5.19137C32.3085 5.19115 32.3085 5.19094 32.3085 5.19072C32.3085 5.19051 32.3085 5.19029 32.3085 5.19008C32.3085 5.18986 32.3085 5.18965 32.3085 5.18943C32.3085 5.18922 32.3085 5.189 32.3085 5.18879C32.3085 5.18857 32.3085 5.18836 32.3085 5.18814C32.3085 5.18793 32.3085 5.18771 32.3085 5.1875C32.3085 5.18728 32.3085 5.18707 32.3085 5.18685C32.3085 5.18664 32.3085 5.18642 32.3085 5.18621C32.3085 5.18599 32.3085 5.18578 32.3085 5.18557C32.3085 5.18535 32.3085 5.18514 32.3085 5.18492C32.3085 5.18471 32.3085 5.18449 32.3085 5.18428C32.3085 5.18406 32.3085 5.18385 32.3085 5.18363C32.3085 5.18342 32.3085 5.1832 32.3085 5.18299C32.3085 5.18277 32.3085 5.18256 32.3085 5.18234C32.3085 5.18213 32.3085 5.18191 32.3085 5.1817C32.3085 5.18148 32.3085 5.18127 32.3085 5.18105C32.3085 5.18084 32.3085 5.18062 32.3085 5.18041C32.3085 5.18019 32.3085 5.17998 32.3085 5.17976C32.3085 5.17955 32.3085 5.17933 32.3085 5.17912C32.3085 5.1789 32.3085 5.17869 32.3085 5.17848C32.3085 5.17826 32.3085 5.17805 32.3085 5.17783C32.3085 5.17762 32.3085 5.1774 32.3085 5.17719C32.3085 5.17697 32.3085 5.17676 32.3085 5.17654C32.3085 5.17633 32.3085 5.17611 32.3085 5.1759C32.3085 5.17568 32.3085 5.17547 32.3085 5.17525C32.3085 5.17504 32.3085 5.17482 32.3085 5.17461C32.3085 5.17439 32.3085 5.17418 32.3085 5.17396C32.3085 5.17375 32.3085 5.17353 32.3085 5.17332C32.3085 5.1731 32.3085 5.17289 32.3085 5.17267C32.3085 5.17246 32.3085 5.17224 32.3085 5.17203C32.3085 5.17182 32.3085 5.1716 32.3085 5.17139C32.3085 5.17117 32.3085 5.17096 32.3085 5.17074C32.3085 5.17053 32.3085 5.17031 32.3085 5.1701C32.3085 5.16988 32.3085 5.16967 32.3085 5.16945C32.3085 5.16924 32.3085 5.16902 32.3085 5.16881C32.3085 5.16859 32.3085 5.16838 32.3085 5.16816C32.3085 5.16795 32.3085 5.16773 32.3085 5.16752C32.3085 5.1673 32.3085 5.16709 32.3085 5.16687C32.3085 5.16666 32.3085 5.16644 32.3085 5.16623C32.3085 5.16601 32.3085 5.1658 32.3085 5.16558C32.3085 5.16537 32.3085 5.16515 32.3085 5.16494C32.3085 5.16473 32.3085 5.16451 32.3085 5.1643C32.3085 5.16408 32.3085 5.16387 32.3085 5.16365C32.3085 5.16344 32.3085 5.16322 32.3085 5.16301C32.3085 5.16279 32.3085 5.16258 32.3085 5.16236C32.3085 5.16215 32.3085 5.16193 32.3085 5.16172C32.3085 5.1615 32.3085 5.16129 32.3085 5.16107C32.3085 5.16086 32.3085 5.16064 32.3085 5.16043C32.3085 5.16021 32.3085 5.16 32.3085 5.15978C32.3085 5.15957 32.3085 5.15935 32.3085 5.15914C32.3085 5.15892 32.3085 5.15871 32.3085 5.15849C32.3085 5.15828 32.3085 5.15807 32.3085 5.15785C32.3085 5.15764 32.3085 5.15742 32.3085 5.15721C32.3085 5.15699 32.3085 5.15678 32.3085 5.15656C32.3085 5.15635 32.3085 5.15613 32.3085 5.15592C32.3085 5.1557 32.3085 5.15549 32.3085 5.15527C32.3085 5.15506 32.3085 5.15484 32.3085 5.15463C32.3085 5.15441 32.3085 5.1542 32.3085 5.15398C32.3085 5.15377 32.3085 5.15355 32.3085 5.15334C32.3085 5.15312 32.3085 5.15291 32.3085 5.15269C32.3085 5.15248 32.3085 5.15226 32.3085 5.15205C32.3085 5.15183 32.3085 5.15162 32.3085 5.1514C32.3085 5.15119 32.3085 5.15098 32.3085 5.15076C32.3085 5.15055 32.3085 5.15033 32.3085 5.15012C32.3085 5.1499 32.3085 5.14969 32.3085 5.14947C32.3085 5.14926 32.3085 5.14904 32.3085 5.14883C32.3085 5.14861 32.3085 5.1484 32.3085 5.14818C32.3085 5.14797 32.3085 5.14775 32.3085 5.14754C32.3085 5.14732 32.3085 5.14711 32.3085 5.14689C32.3085 5.14668 32.3085 5.14646 32.3085 5.14625C32.3085 5.14603 32.3085 5.14582 32.3085 5.1456C32.3085 5.14539 32.3085 5.14517 32.3085 5.14496C32.3085 5.14474 32.3085 5.14453 32.3085 5.14432C32.3085 5.1441 32.3085 5.14389 32.3085 5.14367C32.3085 5.14346 32.3085 5.14324 32.3085 5.14303C32.3085 5.14281 32.3085 5.1426 32.3085 5.14238C32.3085 5.14217 32.3085 5.14195 32.3085 5.14174C32.3085 5.14152 32.3085 5.14131 32.3085 5.14109C32.3085 5.14088 32.3085 5.14066 32.3085 5.14045C32.3085 5.14023 32.3085 5.14002 32.3085 5.1398C32.3085 5.13959 32.3085 5.13937 32.3085 5.13916C32.3085 5.13894 32.3085 5.13873 32.3085 5.13851C32.3085 5.1383 32.3085 5.13808 32.3085 5.13787C32.3085 5.13765 32.3085 5.13744 32.3085 5.13723C32.3085 5.13701 32.3085 5.1368 32.3085 5.13658C32.3085 5.13637 32.3085 5.13615 32.3085 5.13594C32.3085 5.13572 32.3085 5.13551 32.3085 5.13529C32.3085 5.13508 32.3085 5.13486 32.3085 5.13465C32.3085 5.13443 32.3085 5.13422 32.3085 5.134C32.3085 5.13379 32.3085 5.13357 32.3085 5.13336C32.3085 5.13314 32.3085 5.13293 32.3085 5.13271C32.3085 5.1325 32.3085 5.13228 32.3085 5.13207C32.3085 5.13185 32.3085 5.13164 32.3085 5.13142C32.3085 5.13121 32.3085 5.13099 32.3085 5.13078C32.3085 5.13057 32.3085 5.13035 32.3085 5.13014C32.3085 5.12992 32.3085 5.12971 32.3085 5.12949C32.3085 5.12928 32.3085 5.12906 32.3085 5.12885C32.3085 5.12863 32.3085 5.12842 32.3085 5.1282C32.3085 5.12799 32.3085 5.12777 32.3085 5.12756C32.3085 5.12734 32.3085 5.12713 32.3085 5.12691C32.3085 5.1267 32.3085 5.12648 32.3085 5.12627C32.3085 5.12605 32.3085 5.12584 32.3085 5.12562C32.3085 5.12541 32.3085 5.12519 32.3085 5.12498C32.3085 5.12476 32.3085 5.12455 32.3085 5.12433C32.3085 5.12412 32.3085 5.1239 32.3085 5.12369C32.3085 5.12348 32.3085 5.12326 32.3085 5.12305C32.3085 5.12283 32.3085 5.12262 32.3085 5.1224C32.3085 5.12219 32.3085 5.12197 32.3085 5.12176C32.3085 5.12154 32.3085 5.12133 32.3085 5.12111C32.3085 5.1209 32.3085 5.12068 32.3085 5.12047C32.3085 5.12025 32.3085 5.12004 32.3085 5.11982C32.3085 5.11961 32.3085 5.11939 32.3085 5.11918C32.3085 5.11896 32.3085 5.11875 32.3085 5.11853C32.3085 5.11832 32.3085 5.1181 32.3085 5.11789C32.3085 5.11767 32.3085 5.11746 32.3085 5.11724C32.3085 5.11703 32.3085 5.11682 32.3085 5.1166C32.3085 5.11639 32.3085 5.11617 32.3085 5.11596C32.3085 5.11574 32.3085 5.11553 32.3085 5.11531C32.3085 5.1151 32.3085 5.11488 32.3085 5.11467C32.3085 5.11445 32.3085 5.11424 32.3085 5.11402C32.3085 5.11381 32.3085 5.11359 32.3085 5.11338C32.3085 5.11316 32.3085 5.11295 32.3085 5.11273C32.3085 5.11252 32.3085 5.1123 32.3085 5.11209C32.3085 5.11187 32.3085 5.11166 32.3085 5.11144C32.3085 5.11123 32.3085 5.11101 32.3085 5.1108C32.3085 5.11058 32.3085 5.11037 32.3085 5.11016C32.3085 5.10994 32.3085 5.10973 32.3085 5.10951C32.3085 5.1093 32.3085 5.10908 32.3085 5.10887C32.3085 5.10865 32.3085 5.10844 32.3085 5.10822C32.3085 5.10801 32.3085 5.10779 32.3085 5.10758C32.3085 5.10736 32.3085 5.10715 32.3085 5.10693C32.3085 5.10672 32.3085 5.1065 32.3085 5.10629C32.3085 5.10607 32.3085 5.10586 32.3085 5.10564C32.3085 5.10543 32.3085 5.10521 32.3085 5.105H31.3085ZM31.3085 5.435H30.3085C30.3085 5.43416 30.3086 5.43418 30.3084 5.43559C30.3081 5.43708 30.3073 5.44135 30.3049 5.44876L31.2535 5.765L32.2022 6.08124C32.271 5.87482 32.3085 5.65818 32.3085 5.435H31.3085ZM31.2535 5.765L30.2707 5.58071C30.206 5.92557 29.9977 6.34647 29.534 6.84106L30.2635 7.525L30.9931 8.20894C31.6294 7.53019 32.0811 6.77776 32.2364 5.94928L31.2535 5.765ZM30.2635 7.525L29.511 6.86649C28.8952 7.57018 28.4324 8.42628 28.1049 9.40877L29.0535 9.725L30.0022 10.0412C30.2614 9.26372 30.6052 8.65315 31.0161 8.1835L30.2635 7.525ZM29.0535 9.725L28.0636 9.58357C28.0726 9.52031 28.1198 9.3555 28.2883 9.22439C28.44 9.10646 28.5706 9.11 28.5585 9.11V10.11V11.11C28.8398 11.11 29.1996 11.0494 29.5162 10.8031C29.8498 10.5437 29.9978 10.1864 30.0435 9.86643L29.0535 9.725ZM28.5585 10.11V9.11C28.5884 9.11 28.7158 9.11273 28.8717 9.19527C29.0566 9.29312 29.2047 9.46357 29.2735 9.67002C29.3319 9.84517 29.3111 9.97874 29.3046 10.0137C29.2971 10.0543 29.29 10.0601 29.3073 10.0211L28.3935 9.615L27.4797 9.20886C27.4237 9.33489 27.3685 9.4851 27.3381 9.64947C27.3087 9.80813 27.2902 10.0448 27.3761 10.3025C27.4724 10.5914 27.6732 10.8237 27.936 10.9628C28.1698 11.0866 28.4004 11.11 28.5585 11.11V10.11ZM28.3935 9.615L29.2256 10.1697C29.5909 9.62171 29.8531 8.99967 30.0237 8.31754L29.0535 8.075L28.0834 7.83246C27.9606 8.32366 27.7828 8.72829 27.5615 9.0603L28.3935 9.615ZM29.0535 8.075L30.0129 8.35716C30.222 7.6461 30.3285 6.92783 30.3285 6.205H29.3285H28.3285C28.3285 6.72884 28.2517 7.25723 28.0942 7.79283L29.0535 8.075ZM29.3285 6.205H30.3285C30.3285 5.09178 30.0697 4.06659 29.526 3.1605L28.6685 3.675L27.811 4.18949C28.1474 4.75007 28.3285 5.41156 28.3285 6.205H29.3285ZM28.6685 3.675L29.526 3.1605C28.8596 2.04978 27.7291 1.575 26.4135 1.575V2.575V3.575C27.2246 3.575 27.5975 3.83355 27.811 4.18949L28.6685 3.675ZM26.4135 2.575V1.575C25.2609 1.575 24.1235 1.90883 23.0129 2.52584L23.4985 3.4L23.9842 4.27416C24.8536 3.79116 25.6595 3.575 26.4135 3.575V2.575ZM23.4985 3.4L23.0129 2.52584C21.8061 3.19627 20.8261 4.31885 20.0338 5.78448L20.9135 6.26L21.7932 6.73552C22.4677 5.48781 23.2109 4.70373 23.9842 4.27415L23.4985 3.4ZM20.9135 6.26L20.0346 5.78313L9.85956 24.5381L10.7385 25.015L11.6175 25.4919L21.7925 6.73686L20.9135 6.26ZM10.7385 25.015L9.85924 24.5387C8.92275 26.2676 8.10183 27.4244 7.40806 28.0866L8.09854 28.81L8.78901 29.5334C9.70857 28.6556 10.6477 27.2824 11.6178 25.4913L10.7385 25.015ZM8.09854 28.81L7.40888 28.0859C6.66202 28.7972 6.14541 29.1332 5.8372 29.2433L6.17354 30.185L6.50987 31.1267C7.22833 30.8702 7.99505 30.2895 8.78819 29.5341L8.09854 28.81ZM6.17354 30.185V31.185H19.4285V30.185V29.185H6.17354V30.185ZM19.4285 30.185V31.185C21.209 31.185 22.8653 31.1294 24.3965 31.0173L24.3235 30.02L24.2506 29.0227C22.7751 29.1306 21.1681 29.185 19.4285 29.185V30.185ZM24.3235 30.02L24.3965 31.0173C25.1845 30.9597 25.8698 30.8559 26.4259 30.6891C26.9539 30.5307 27.5158 30.272 27.8735 29.795L27.0735 29.195L26.2735 28.595C26.3013 28.558 26.2399 28.6568 25.8512 28.7734C25.4906 28.8816 24.9659 28.9703 24.2506 29.0227L24.3235 30.02ZM27.0735 29.195L27.8873 29.7762C28.3654 29.1068 28.6235 28.3561 28.6235 27.545H27.6235H26.6235C26.6235 27.9073 26.515 28.2565 26.2598 28.6138L27.0735 29.195ZM27.6235 27.545H28.6235C28.6235 26.8952 28.444 26.2854 28.0601 25.7593C27.6836 25.2434 27.1543 24.8671 26.5447 24.5962L26.1385 25.51L25.7324 26.4238C26.1128 26.5929 26.326 26.7758 26.4445 26.9382C26.5555 27.0904 26.6235 27.2781 26.6235 27.545H27.6235ZM26.1385 25.51L26.6932 24.6779C26.6945 24.6788 26.7514 24.7155 26.8148 24.8C26.8842 24.8925 26.9735 25.0612 26.9735 25.29H25.9735H24.9735C24.9735 25.8942 25.4134 26.2284 25.5838 26.342L26.1385 25.51ZM25.9735 25.29H26.9735C26.9735 25.5754 26.8263 25.7414 26.7906 25.7771L26.0835 25.07L25.3764 24.3629C25.1941 24.5452 24.9735 24.8579 24.9735 25.29H25.9735ZM26.0835 25.07L26.6382 25.902C26.5342 25.9714 26.4018 26.015 26.2623 26.015C26.1342 26.015 26.0494 25.9785 26.0213 25.9644L26.4685 25.07L26.9158 24.1756C26.5384 23.9869 26.0129 23.9153 25.5288 24.238L26.0835 25.07ZM26.4685 25.07L26.0624 25.9838C26.1842 26.0379 26.4509 26.2286 26.8643 26.7108L27.6235 26.06L28.3828 25.4092C27.9161 24.8648 27.4129 24.3954 26.8747 24.1562L26.4685 25.07ZM27.6235 26.06L26.9164 26.7671C27.3476 27.1982 27.7488 27.6824 28.1195 28.2215L28.9435 27.655L29.7676 27.0885C29.3316 26.4543 28.8528 25.8751 28.3306 25.3529L27.6235 26.06ZM28.9435 27.655L28.1371 28.2464C28.5262 28.7769 28.7059 29.1143 28.7649 29.2912L29.7135 28.975L30.6622 28.6588C30.5012 28.1757 30.1676 27.6331 29.7499 27.0636L28.9435 27.655ZM29.7135 28.975L28.7649 29.2912C28.8427 29.5248 28.8785 29.7482 28.8785 29.965H29.8785H30.8785C30.8785 29.5218 30.8044 29.0852 30.6622 28.6588L29.7135 28.975ZM29.8785 29.965H28.8785C28.8785 30.3595 28.7436 30.5931 28.4022 30.7903C27.9776 31.0355 27.2117 31.22 25.9735 31.22V32.22V33.22C27.3387 33.22 28.5253 33.0287 29.4024 32.5222C30.3626 31.9677 30.8785 31.0738 30.8785 29.965H29.8785ZM25.9735 32.22V31.22C23.9437 31.22 21.7647 31.1475 19.4359 31.0019L19.3735 32L19.3112 32.9981C21.6757 33.1458 23.8967 33.22 25.9735 33.22V32.22ZM19.3735 32L19.4359 31.0019C17.0947 30.8556 14.772 30.691 12.4677 30.5081L12.3885 31.505L12.3094 32.5019C14.6251 32.6856 16.959 32.851 19.3112 32.9981L19.3735 32ZM12.3885 31.505L12.4689 30.5082C10.1828 30.3239 8.02298 30.1946 5.98987 30.1207L5.95354 31.12L5.9172 32.1193C7.91742 32.1921 10.0476 32.3195 12.3082 32.5018L12.3885 31.505ZM5.95354 31.12L6.04834 30.1245C5.11548 30.0357 4.19153 30.1711 3.28754 30.5155L3.64354 31.45L3.99953 32.3845C4.63554 32.1422 5.25159 32.0577 5.85873 32.1155L5.95354 31.12ZM3.64354 31.45L3.31318 30.5061C2.50299 30.7897 1.8012 31.1584 1.26586 31.6451L1.93854 32.385L2.61121 33.1249C2.88254 32.8783 3.31741 32.6236 3.97389 32.3939L3.64354 31.45ZM56.2717 46.245L56.7016 45.3421L56.7016 45.3421L56.2717 46.245ZM54.2917 44.375L53.44 44.8991L53.4437 44.905L54.2917 44.375ZM52.3117 41.185L51.4518 41.6955L51.4576 41.7053L51.4637 41.715L52.3117 41.185ZM50.2217 37.61L51.0884 37.111L51.0815 37.0995L50.2217 37.61ZM48.3517 34.475L47.4792 34.9636L47.4865 34.9767L47.4942 34.9895L48.3517 34.475ZM47.2517 32.495L48.1296 32.0161L47.8052 31.4214L47.1325 31.5021L47.2517 32.495ZM39.9367 32.275L40.109 31.29L40.097 31.2879L40.085 31.2861L39.9367 32.275ZM35.9217 31.01L35.4525 31.8932L35.4637 31.899L35.9217 31.01ZM33.0617 28.37L32.2214 28.9121L32.2214 28.9121L33.0617 28.37ZM32.8417 18.8L31.8877 18.4997L31.8843 18.511L32.8417 18.8ZM35.5917 12.86L36.445 13.3815L36.4492 13.3745L35.5917 12.86ZM40.1017 7.25L39.4167 6.52133L39.4094 6.52832L40.1017 7.25ZM46.4267 3.125L46.8223 4.04343L46.8289 4.04052L46.4267 3.125ZM64.1917 3.675L63.6132 4.49079L63.6232 4.49773L64.1917 3.675ZM62.1567 23.915L61.3814 23.2833L61.3801 23.285L62.1567 23.915ZM56.6017 28.975L57.1497 29.8115L57.1597 29.8048L56.6017 28.975ZM49.6167 32L49.3774 31.029L48.1959 31.3201L48.7105 32.4229L49.6167 32ZM50.8267 34.2L49.9692 34.7145L49.9766 34.7269L49.9844 34.7391L50.8267 34.2ZM54.8417 40.25L54.0238 40.8255L54.0279 40.8312L54.8417 40.25ZM56.7667 42.945L57.5804 42.3638L57.5804 42.3638L56.7667 42.945ZM58.6367 44.54L59.0647 43.6363L59.0449 43.6269L59.0247 43.6184L58.6367 44.54ZM63.8067 44.32L63.3728 43.419L63.3728 43.419L63.8067 44.32ZM66.3917 42.725L65.8104 41.9113L65.7882 41.9271L65.767 41.9441L66.3917 42.725ZM67.9317 41.46L67.2246 40.7529L67.201 40.7764L67.1791 40.8015L67.9317 41.46ZM68.4267 41.46L67.478 41.7762L67.5005 41.8437L67.5322 41.9072L68.4267 41.46ZM68.3717 41.9L69.1242 42.5585L69.1491 42.5301L69.1717 42.5L68.3717 41.9ZM66.0067 43.935L65.4202 43.1251L65.4134 43.13L65.4067 43.135L66.0067 43.935ZM62.5417 45.915L62.1477 44.9959L62.1368 45.0006L62.1259 45.0055L62.5417 45.915ZM50.2767 30.57L50.6625 31.4926L50.6706 31.4891L50.2767 30.57ZM55.8317 27.05L56.496 27.7974L56.497 27.7965L55.8317 27.05ZM60.1767 21.935L59.3396 21.3877L59.3323 21.3992L60.1767 21.935ZM63.0367 15.94L62.088 15.6238L62.0855 15.6313L62.0831 15.6389L63.0367 15.94ZM61.9367 4.335L62.6149 3.6002L62.6149 3.6002L61.9367 4.335ZM48.8467 3.84L49.2939 4.73445L49.3006 4.73104L48.8467 3.84ZM43.4567 7.69L42.7654 6.96731L42.7575 6.97499L43.4567 7.69ZM39.0017 13.025L38.1744 12.4631L38.1672 12.4739L39.0017 13.025ZM35.9767 18.91L36.9144 19.2573L36.9144 19.2573L35.9767 18.91ZM36.9117 29.91L36.2143 30.6267L36.2241 30.6363L36.2342 30.6455L36.9117 29.91ZM58.7467 46.795V45.795C58.0105 45.795 57.333 45.6428 56.7016 45.3421L56.2717 46.245L55.8417 47.1479C56.7504 47.5805 57.7228 47.795 58.7467 47.795V46.795ZM56.2717 46.245L56.7016 45.3421C56.1376 45.0736 55.6107 44.5987 55.1397 43.845L54.2917 44.375L53.4437 44.905C54.0726 45.9113 54.8657 46.6831 55.8417 47.1479L56.2717 46.245ZM54.2917 44.375L55.1433 43.8509C54.5552 42.8952 53.8939 41.8299 53.1597 40.655L52.3117 41.185L51.4637 41.715C52.196 42.8868 52.8548 43.9481 53.44 44.8991L54.2917 44.375ZM52.3117 41.185L53.1715 40.6745C52.4772 39.5051 51.7828 38.3173 51.0883 37.111L50.2217 37.61L49.355 38.109C50.0539 39.3227 50.7528 40.5183 51.4518 41.6955L52.3117 41.185ZM50.2217 37.61L51.0815 37.0995C50.3843 35.9251 49.7601 34.8788 49.2092 33.9605L48.3517 34.475L47.4942 34.9895C48.0432 35.9045 48.6657 36.9482 49.3618 38.1205L50.2217 37.61ZM48.3517 34.475L49.2242 33.9864C48.7109 33.0699 48.3467 32.4142 48.1296 32.0161L47.2517 32.495L46.3738 32.9739C46.5967 33.3825 46.9657 34.0467 47.4792 34.9636L48.3517 34.475ZM47.2517 32.495L47.1325 31.5021C46.2595 31.6069 45.3279 31.66 44.3367 31.66V32.66V33.66C45.3988 33.66 46.4105 33.6031 47.3708 33.4879L47.2517 32.495ZM44.3367 32.66V31.66C42.9287 31.66 41.5197 31.5368 40.109 31.29L39.9367 32.275L39.7643 33.26C41.287 33.5265 42.8113 33.66 44.3367 33.66V32.66ZM39.9367 32.275L40.085 31.2861C38.7167 31.0808 37.4842 30.6901 36.3796 30.121L35.9217 31.01L35.4637 31.899C36.7791 32.5766 38.2233 33.0292 39.7883 33.2639L39.9367 32.275ZM35.9217 31.01L36.3908 30.1269C35.3711 29.5852 34.5445 28.8238 33.902 27.8279L33.0617 28.37L32.2214 28.9121C33.0455 30.1896 34.1255 31.1882 35.4525 31.8931L35.9217 31.01ZM33.0617 28.37L33.902 27.8279C33.3019 26.8978 32.9617 25.6361 32.9617 23.97H31.9617H30.9617C30.9617 25.8972 31.3547 27.5688 32.2214 28.9121L33.0617 28.37ZM31.9617 23.97H32.9617C32.9617 22.592 33.2314 20.9691 33.799 19.089L32.8417 18.8L31.8843 18.511C31.2786 20.5176 30.9617 22.3413 30.9617 23.97H31.9617ZM32.8417 18.8L33.7955 19.1003C34.3918 17.2063 35.2724 15.3001 36.4449 13.3814L35.5917 12.86L34.7384 12.3385C33.4909 14.3799 32.5382 16.4337 31.8878 18.4997L32.8417 18.8ZM35.5917 12.86L36.4492 13.3745C37.6109 11.4382 39.0575 9.63718 40.7939 7.97168L40.1017 7.25L39.4094 6.52832C37.5525 8.30948 35.9924 10.2484 34.7342 12.3455L35.5917 12.86ZM40.1017 7.25L40.7866 7.97863C42.5326 6.33738 44.5423 5.02557 46.8223 4.04341L46.4267 3.125L46.031 2.20659C43.5444 3.27776 41.3374 4.71595 39.4168 6.52137L40.1017 7.25ZM46.4267 3.125L46.8289 4.04052C49.1058 3.04006 51.6795 2.53 54.5667 2.53V1.53V0.529999C51.4405 0.529999 48.5875 1.08327 46.0244 2.20948L46.4267 3.125ZM54.5667 1.53V2.53C58.9014 2.53 61.853 3.24257 63.6132 4.49073L64.1917 3.675L64.7701 2.85926C62.497 1.24743 59.0319 0.529999 54.5667 0.529999V1.53ZM64.1917 3.675L63.6232 4.49773C65.3105 5.66348 66.2167 7.49938 66.2167 10.22H67.2167H68.2167C68.2167 7.00062 67.1061 4.47318 64.7601 2.85227L64.1917 3.675ZM67.2167 10.22H66.2167C66.2167 12.5543 65.7991 14.8372 64.9603 17.0739L65.8967 17.425L66.833 17.7761C67.7542 15.3195 68.2167 12.799 68.2167 10.22H67.2167ZM65.8967 17.425L64.9603 17.0739C64.1192 19.317 62.9275 21.3859 61.3814 23.2833L62.1567 23.915L62.9319 24.5467C64.6125 22.4841 65.9141 20.2264 66.833 17.7761L65.8967 17.425ZM62.1567 23.915L61.3801 23.285C59.8675 25.1494 58.09 26.7692 56.0437 28.1452L56.6017 28.975L57.1597 29.8048C59.3667 28.3208 61.2925 26.5673 62.9332 24.545L62.1567 23.915ZM56.6017 28.975L56.0536 28.1385C54.0239 29.4684 51.8004 30.4321 49.3774 31.029L49.6167 32L49.8559 32.971C52.4929 32.3213 54.9261 31.2683 57.1497 29.8115L56.6017 28.975ZM49.6167 32L48.7105 32.4229C48.9887 33.0192 49.4126 33.7868 49.9692 34.7145L50.8267 34.2L51.6842 33.6855C51.1408 32.7799 50.7579 32.0808 50.5228 31.5771L49.6167 32ZM50.8267 34.2L49.9844 34.7391C50.5733 35.6592 51.2169 36.6522 51.9152 37.718L52.7517 37.17L53.5881 36.622C52.8931 35.5611 52.2534 34.5742 51.6689 33.6609L50.8267 34.2ZM52.7517 37.17L51.9152 37.718C52.6176 38.7902 53.3205 39.826 54.0239 40.8255L54.8417 40.25L55.6595 39.6745C54.9695 38.694 54.279 37.6765 53.5881 36.622L52.7517 37.17ZM54.8417 40.25L54.0279 40.8312C54.7613 41.8579 55.4029 42.7562 55.9529 43.5262L56.7667 42.945L57.5804 42.3638C57.0304 41.5938 56.3887 40.6954 55.6554 39.6688L54.8417 40.25ZM56.7667 42.945L55.9529 43.5262C56.5836 44.4092 57.3431 45.0804 58.2486 45.4616L58.6367 44.54L59.0247 43.6184C58.5369 43.413 58.0497 43.0208 57.5804 42.3638L56.7667 42.945ZM58.6367 44.54L58.2086 45.4437C59.0247 45.8303 59.8668 46.035 60.7267 46.035V45.035V44.035C60.1932 44.035 59.642 43.9097 59.0647 43.6363L58.6367 44.54ZM60.7267 45.035V46.035C61.9453 46.035 63.1198 45.7606 64.2405 45.221L63.8067 44.32L63.3728 43.419C62.5135 43.8327 61.6347 44.035 60.7267 44.035V45.035ZM63.8067 44.32L64.2405 45.221C65.2873 44.717 66.2152 44.1468 67.0164 43.5059L66.3917 42.725L65.767 41.9441C65.1015 42.4765 64.3061 42.9697 63.3728 43.419L63.8067 44.32ZM66.3917 42.725L66.9729 43.5387C67.7419 42.9894 68.3428 42.5088 68.6842 42.1185L67.9317 41.46L67.1791 40.8015C67.0072 40.9979 66.5814 41.3606 65.8104 41.9113L66.3917 42.725ZM67.9317 41.46L68.6388 42.1671C68.6596 42.1462 68.6455 42.1649 68.5974 42.1937C68.5546 42.2194 68.4159 42.295 68.2067 42.295V41.295V40.295C67.9241 40.295 67.7029 40.3981 67.5684 40.4788C67.4286 40.5626 67.3137 40.6638 67.2246 40.7529L67.9317 41.46ZM68.2067 41.295V42.295C68.0898 42.295 67.9131 42.263 67.7442 42.1363C67.5797 42.0129 67.5069 41.863 67.478 41.7762L68.4267 41.46L69.3753 41.1438C69.3098 40.947 69.182 40.7146 68.9442 40.5362C68.7019 40.3545 68.4335 40.295 68.2067 40.295V41.295ZM68.4267 41.46L67.5322 41.9072C67.4906 41.824 67.4577 41.6997 67.4756 41.556C67.4927 41.4197 67.5471 41.3328 67.5717 41.3L68.3717 41.9L69.1717 42.5C69.3062 42.3206 69.4248 42.0869 69.4602 41.804C69.4965 41.5137 69.436 41.2426 69.3211 41.0128L68.4267 41.46ZM68.3717 41.9L67.6191 41.2415C67.1775 41.7462 66.4579 42.3736 65.4202 43.1251L66.0067 43.935L66.5932 44.7449C67.6821 43.9564 68.5392 43.2271 69.1242 42.5585L68.3717 41.9ZM66.0067 43.935L65.4067 43.135C64.449 43.8532 63.3642 44.4745 62.1477 44.9959L62.5417 45.915L62.9356 46.8341C64.2857 46.2555 65.511 45.5568 66.6067 44.735L66.0067 43.935ZM62.5417 45.915L62.1259 45.0055C60.9558 45.5404 59.832 45.795 58.7467 45.795V46.795V47.795C60.1546 47.795 61.5608 47.4629 62.9574 46.8245L62.5417 45.915ZM43.8967 31.835V32.835C46.2626 32.835 48.5207 32.3882 50.6625 31.4926L50.2767 30.57L49.8909 29.6474C47.9993 30.4384 46.004 30.835 43.8967 30.835V31.835ZM50.2767 30.57L50.6706 31.4891C52.8215 30.5673 54.7647 29.3363 56.496 27.7974L55.8317 27.05L55.1673 26.3026C53.5986 27.697 51.8385 28.8127 49.8827 29.6509L50.2767 30.57ZM55.8317 27.05L56.497 27.7965C58.2528 26.2316 59.7614 24.4557 61.021 22.4708L60.1767 21.935L59.3323 21.3992C58.172 23.2276 56.7839 24.8617 55.1663 26.3035L55.8317 27.05ZM60.1767 21.935L61.0136 22.4822C62.3082 20.5023 63.3017 18.4215 63.9902 16.2411L63.0367 15.94L62.0831 15.6389C61.4516 17.6385 60.5384 19.5544 59.3397 21.3878L60.1767 21.935ZM63.0367 15.94L63.9853 16.2562C64.7135 14.0717 65.0817 11.8934 65.0817 9.725H64.0817H63.0817C63.0817 11.6633 62.7531 13.6283 62.088 15.6238L63.0367 15.94ZM64.0817 9.725H65.0817C65.0817 7.22388 64.2849 5.14171 62.6149 3.6002L61.9367 4.335L61.2584 5.0698C62.4484 6.16829 63.0817 7.67945 63.0817 9.725H64.0817ZM61.9367 4.335L62.6149 3.6002C60.9037 2.02056 58.1652 1.355 54.6767 1.355V2.355V3.355C58.0081 3.355 60.1096 4.00943 61.2584 5.0698L61.9367 4.335ZM54.6767 2.355V1.355C52.5571 1.355 50.4593 1.89619 48.3927 2.94896L48.8467 3.84L49.3006 4.73104C51.1207 3.8038 52.9095 3.355 54.6767 3.355V2.355ZM48.8467 3.84L48.3994 2.94557C46.3953 3.94767 44.5176 5.2914 42.7654 6.96736L43.4567 7.69L44.1479 8.41264C45.7691 6.86193 47.4847 5.63899 49.2939 4.73443L48.8467 3.84ZM43.4567 7.69L42.7575 6.97499C41.059 8.6358 39.5313 10.4656 38.1744 12.4631L39.0017 13.025L39.8289 13.5869C41.1121 11.6977 42.5543 9.97086 44.1558 8.405L43.4567 7.69ZM39.0017 13.025L38.1672 12.4739C36.846 14.4746 35.8013 16.5041 35.0389 18.5627L35.9767 18.91L36.9144 19.2573C37.6187 17.3559 38.5906 15.4621 39.8361 13.5761L39.0017 13.025ZM35.9767 18.91L35.0389 18.5627C34.2734 20.6296 33.8767 22.5998 33.8767 24.465H34.8767H35.8767C35.8767 22.8835 36.2133 21.1504 36.9144 19.2573L35.9767 18.91ZM34.8767 24.465H33.8767C33.8767 26.9814 34.6229 29.0783 36.2143 30.6267L36.9117 29.91L37.609 29.1933C36.4871 28.1017 35.8767 26.5686 35.8767 24.465H34.8767ZM36.9117 29.91L36.2342 30.6455C37.9063 32.1856 40.5494 32.835 43.8967 32.835V31.835V30.835C40.7173 30.835 38.7037 30.201 37.5891 29.1745L36.9117 29.91Z" fill="#9B008B" mask="url(#path-1-outside-1_1_4)"/>
</svg>
